<svg width="16" height="17" viewBox="0 0 16 17" fill="none" xmlns="http://www.w3.org/2000/svg">
<g id="add">
<path id="Union" fill-rule="evenodd" clip-rule="evenodd" d="M8.52077 2.46603C8.52077 2.17148 8.28199 1.9327 7.98744 1.9327C7.69289 1.9327 7.4541 2.17148 7.4541 2.46603L7.45411 7.96668L1.95352 7.96668C1.65897 7.96668 1.42018 8.20546 1.42018 8.50001C1.42018 8.79456 1.65897 9.03335 1.95352 9.03335L7.45411 9.03335L7.45411 14.534C7.45411 14.8285 7.69289 15.0673 7.98744 15.0673C8.282 15.0673 8.52078 14.8285 8.52078 14.534L8.52078 9.03335L14.0215 9.03335C14.316 9.03335 14.5548 8.79457 14.5548 8.50002C14.5548 8.20546 14.316 7.96668 14.0215 7.96668L8.52078 7.96668L8.52077 2.46603Z" fill="#E7EFFB"/>
</g>
</svg>
