<svg width="40" height="40" viewBox="0 0 40 40" fill="none" xmlns="http://www.w3.org/2000/svg">
<rect width="40" height="40" rx="20" fill="#8F00FF"/>
<path fill-rule="evenodd" clip-rule="evenodd" d="M19.2758 24.7353C18.2706 24.5843 17.3296 24.1706 16.5767 23.517C16.5436 23.4879 16.5105 23.4568 16.4792 23.4274L16.4733 23.4219C16.403 23.3578 16.3368 23.2916 16.2706 23.2233C16.2044 23.1551 16.1424 23.0848 16.0803 23.0144L16.0487 22.9775C15.9988 22.9194 15.9485 22.8608 15.9024 22.7993C15.2013 21.8996 14.8186 20.8014 14.8186 19.639C14.8186 18.4435 15.222 17.3121 15.9624 16.3979C15.9697 16.3886 15.9769 16.3798 15.9841 16.371C15.9914 16.3623 15.9986 16.3535 16.0058 16.3442C16.1072 16.2221 16.2127 16.1042 16.3264 15.9925C16.5581 15.7609 16.8084 15.5582 17.0731 15.3783L17.0731 15.3783L17.0731 15.3783C17.1496 15.3265 17.2262 15.2748 17.3047 15.2293C17.3203 15.22 17.3363 15.2107 17.3523 15.2014L17.3524 15.2014C17.3684 15.1921 17.3844 15.1828 17.3999 15.1735C17.9749 14.8508 18.6119 14.6337 19.2779 14.5323C19.7226 14.4661 20.1135 14.2303 20.3803 13.8684C20.6471 13.5064 20.7588 13.0618 20.6906 12.6171C20.6223 12.1724 20.3865 11.7794 20.0266 11.5126C19.6874 11.2623 19.2779 11.1527 18.8622 11.1941V11.192L18.825 11.1982C18.8167 11.1992 18.8084 11.1998 18.8001 11.2003C18.7919 11.2008 18.7836 11.2013 18.7753 11.2023C18.6264 11.2251 18.4795 11.252 18.3327 11.2809C16.6801 11.5995 15.1578 12.3958 13.9437 13.6099C10.6262 16.9274 10.62 22.3236 13.9272 25.6474L13.9458 25.666L13.9479 25.6681L13.95 25.6702C15.2923 27.0104 17.0048 27.8439 18.8601 28.0839V28.0735C19.2758 28.1149 19.6874 28.0053 20.0246 27.755C20.3865 27.4882 20.6223 27.0952 20.6885 26.6505C20.7547 26.2058 20.6451 25.7612 20.3782 25.3992C20.1114 25.0373 19.7205 24.8015 19.2758 24.7353ZM24.6452 16.3917C25.9978 16.3917 27.0982 15.3224 27.0982 14.009C27.0982 12.6564 25.9978 11.556 24.6452 11.556C23.3318 11.556 22.2625 12.6564 22.2625 14.009C22.2625 15.3224 23.3318 16.3917 24.6452 16.3917ZM24.4383 21.4467C26.1406 21.4467 26.7673 22.3816 26.9927 23.1654C27.4663 24.8118 26.5108 27.6702 24.5666 28.8864L24.1943 29.1201V26.2017C22.9843 26.0776 22.0536 25.06 22.0536 23.8294C22.0536 22.516 23.125 21.4467 24.4383 21.4467Z" fill="white"/>
</svg>
