<svg width="16" height="17" viewBox="0 0 16 17" fill="none" xmlns="http://www.w3.org/2000/svg">
<g id="Group 36">
<path id="Rectangle 194" d="M2.6 4.1H13.4V14.5C13.4 15.2732 12.7732 15.9 12 15.9H4C3.2268 15.9 2.6 15.2732 2.6 14.5V4.1Z" stroke="#9FA6B2" stroke-width="1.2"/>
<path id="Rectangle 195" d="M5.48387 2.07385C5.72102 1.59955 6.20579 1.29995 6.73607 1.29995H9.26393C9.79421 1.29995 10.279 1.59955 10.5161 2.07385L11.5292 4.09995H4.47082L5.48387 2.07385Z" stroke="#9FA6B2" stroke-width="1.2"/>
<rect id="Rectangle 195_2" x="0.5" y="3.5" width="15" height="1.2" rx="0.6" fill="#9FA6B2"/>
<rect id="Rectangle 196" x="8.59998" y="6.5" width="7" height="1.2" rx="0.6" transform="rotate(90 8.59998 6.5)" fill="#9FA6B2"/>
<rect id="Rectangle 198" x="11.2" y="6.5" width="7" height="1.2" rx="0.6" transform="rotate(90 11.2 6.5)" fill="#9FA6B2"/>
<rect id="Rectangle 197" x="6.19995" y="6.5" width="7" height="1.2" rx="0.6" transform="rotate(90 6.19995 6.5)" fill="#9FA6B2"/>
</g>
</svg>
