<svg width="16" height="14" viewBox="0 0 16 14" fill="none" xmlns="http://www.w3.org/2000/svg">
<path d="M7.87636 4.36364L10.1818 6.66182C10.1818 6.62545 10.1818 6.58182 10.1818 6.54545C10.1818 5.9668 9.95195 5.41185 9.54278 5.00268C9.13361 4.59351 8.57865 4.36364 8 4.36364C7.95636 4.36364 7.92 4.36364 7.87636 4.36364ZM4.74909 4.94545L5.87636 6.07273C5.84 6.22545 5.81818 6.37818 5.81818 6.54545C5.81818 7.12411 6.04805 7.67906 6.45722 8.08823C6.86639 8.4974 7.42135 8.72727 8 8.72727C8.16 8.72727 8.32 8.70545 8.47273 8.66909L9.6 9.79636C9.11273 10.0364 8.57455 10.1818 8 10.1818C7.03558 10.1818 6.11065 9.7987 5.4287 9.11675C4.74675 8.4348 4.36364 7.50988 4.36364 6.54545C4.36364 5.97091 4.50909 5.43273 4.74909 4.94545ZM0.727273 0.923636L2.38545 2.58182L2.71273 2.90909C1.51273 3.85455 0.567273 5.09091 0 6.54545C1.25818 9.73818 4.36364 12 8 12C9.12727 12 10.2036 11.7818 11.1855 11.3891L11.4982 11.6945L13.6218 13.8182L14.5455 12.8945L1.65091 0M8 2.90909C8.96442 2.90909 9.88935 3.29221 10.5713 3.97416C11.2532 4.65611 11.6364 5.58103 11.6364 6.54545C11.6364 7.01091 11.5418 7.46182 11.3745 7.86909L13.5055 10C14.5964 9.09091 15.4691 7.89818 16 6.54545C14.7418 3.35273 11.6364 1.09091 8 1.09091C6.98182 1.09091 6.00727 1.27273 5.09091 1.6L6.66909 3.16364C7.08364 3.00364 7.52727 2.90909 8 2.90909Z" fill="#373740"/>
</svg>
