<svg width="17" height="17" viewBox="0 0 17 17" fill="none" xmlns="http://www.w3.org/2000/svg">
<path fill-rule="evenodd" clip-rule="evenodd" d="M9.02175 2.46603C9.02175 2.17148 8.78297 1.9327 8.48841 1.9327C8.19386 1.9327 7.95508 2.17148 7.95508 2.46603L7.95508 7.96668L2.4545 7.96668C2.15994 7.96668 1.92116 8.20546 1.92116 8.50001C1.92116 8.79456 2.15994 9.03335 2.4545 9.03335L7.95508 9.03335L7.95508 14.534C7.95508 14.8285 8.19387 15.0673 8.48842 15.0673C8.78297 15.0673 9.02175 14.8285 9.02175 14.534L9.02175 9.03335L14.5224 9.03335C14.817 9.03335 15.0558 8.79457 15.0558 8.50002C15.0558 8.20546 14.817 7.96668 14.5224 7.96668L9.02175 7.96668L9.02175 2.46603Z" fill="#6D6AFE"/>
</svg>
