<svg width="42" height="42" viewBox="0 0 42 42" fill="none" xmlns="http://www.w3.org/2000/svg">
<rect width="42" height="42" rx="21" fill="#9D9D9D" fill-opacity="0.04"/>
<g clip-path="url(#clip0_20919_1318)">
<path fill-rule="evenodd" clip-rule="evenodd" d="M21.5815 14.064C22.4302 13.2443 23.5669 12.7907 24.7468 12.801C25.9267 12.8112 27.0554 13.2845 27.8897 14.1188C28.724 14.9531 29.1973 16.0818 29.2075 17.2617C29.2178 18.4416 28.7642 19.5783 27.9445 20.427L27.9354 20.4363L25.6855 22.6862C25.2293 23.1425 24.6803 23.4955 24.0757 23.721C23.4711 23.9465 22.8251 24.0394 22.1815 23.9933C21.5378 23.9472 20.9116 23.7632 20.3454 23.4538C19.7791 23.1445 19.286 22.7169 18.8995 22.2002C18.6514 21.8685 18.7191 21.3985 19.0508 21.1504C19.3825 20.9023 19.8525 20.97 20.1006 21.3017C20.3583 21.6462 20.687 21.9312 21.0645 22.1375C21.4421 22.3437 21.8595 22.4664 22.2886 22.4971C22.7177 22.5278 23.1484 22.4659 23.5514 22.3156C23.9545 22.1652 24.3205 21.93 24.6246 21.6257L24.6247 21.6256L26.8699 19.3805C27.4136 18.8152 27.7144 18.0593 27.7076 17.2747C27.7008 16.4881 27.3853 15.7357 26.829 15.1795C26.2728 14.6232 25.5204 14.3077 24.7338 14.3009C23.9489 14.2941 23.1927 14.5951 22.6273 15.1394L21.3413 16.4178C21.0476 16.7099 20.5727 16.7085 20.2807 16.4147C19.9886 16.121 19.99 15.6461 20.2838 15.3541L21.5738 14.0716L21.5815 14.064Z" fill="#6D6AFE"/>
<path fill-rule="evenodd" clip-rule="evenodd" d="M17.9245 18.2799C18.5291 18.0544 19.1751 17.9615 19.8187 18.0076C20.4624 18.0537 21.0886 18.2377 21.6548 18.547C22.2211 18.8564 22.7142 19.284 23.1007 19.8007C23.3488 20.1324 23.2811 20.6024 22.9494 20.8505C22.6177 21.0986 22.1477 21.0308 21.8996 20.6992C21.6419 20.3547 21.3132 20.0696 20.9356 19.8634C20.5581 19.6571 20.1407 19.5345 19.7116 19.5038C19.2825 19.473 18.8518 19.5349 18.4488 19.6853C18.0457 19.8356 17.6797 20.0709 17.3756 20.3752L15.1303 22.6204C14.5866 23.1857 14.2858 23.9416 14.2926 24.7262C14.2994 25.5128 14.6149 26.2652 15.1712 26.8214C15.7274 27.3776 16.4798 27.6931 17.2664 27.7C18.0509 27.7068 18.8068 27.406 19.3722 26.8622L20.6498 25.5846C20.9427 25.2917 21.4176 25.2917 21.7105 25.5846C22.0034 25.8775 22.0034 26.3524 21.7105 26.6453L20.428 27.9278L20.4187 27.9369C19.57 28.7566 18.4333 29.2102 17.2534 29.1999C16.0735 29.1897 14.9448 28.7164 14.1105 27.8821C13.2762 27.0477 12.8029 25.9191 12.7927 24.7392C12.7824 23.5593 13.236 22.4226 14.0557 21.5739L14.0648 21.5646L16.3147 19.3147C16.3147 19.3147 16.3148 19.3147 16.3147 19.3147C16.7709 18.8584 17.32 18.5054 17.9245 18.2799Z" fill="#6D6AFE"/>
</g>
<defs>
<clipPath id="clip0_20919_1318">
<rect width="18" height="18" fill="white" transform="translate(12 12)"/>
</clipPath>
</defs>
</svg>
