<svg width="47" height="19" viewBox="0 0 47 19" fill="none" xmlns="http://www.w3.org/2000/svg">
<path d="M3.6 5.1H14.4V15.5C14.4 16.2732 13.7732 16.9 13 16.9H5C4.2268 16.9 3.6 16.2732 3.6 15.5V5.1Z" stroke="#9FA6B2" stroke-width="1.2"/>
<path d="M6.48387 3.0741C6.72102 2.5998 7.20579 2.3002 7.73607 2.3002H10.2639C10.7942 2.3002 11.279 2.5998 11.5161 3.0741L12.5292 5.1002H5.47082L6.48387 3.0741Z" stroke="#9FA6B2" stroke-width="1.2"/>
<rect x="1.5" y="4.5" width="15" height="1.2" rx="0.6" fill="#9FA6B2"/>
<rect x="9.59961" y="7.5" width="7" height="1.2" rx="0.6" transform="rotate(90 9.59961 7.5)" fill="#9FA6B2"/>
<rect x="12.2002" y="7.5" width="7" height="1.2" rx="0.6" transform="rotate(90 12.2002 7.5)" fill="#9FA6B2"/>
<rect x="7.2002" y="7.5" width="7" height="1.2" rx="0.6" transform="rotate(90 7.2002 7.5)" fill="#9FA6B2"/>
<path d="M26.8398 4.8125C26.8262 6.35742 27.8242 7.83398 29.752 8.44922L28.9863 9.63867C27.5918 9.19434 26.6143 8.26465 26.0879 7.08203C25.541 8.35352 24.5361 9.34473 23.0938 9.83008L22.3145 8.62695C24.3105 7.9707 25.3086 6.38477 25.3086 4.68945V3.5H26.8398V4.8125ZM32.1582 2.85742V5.96094H33.8809V7.23242H32.1582V10.3359H30.6406V2.85742H32.1582ZM32.1582 10.8828V15.2168H30.6406V12.0996H23.9277V10.8828H32.1582ZM45.1465 2.85742V15.2168H43.6973V2.85742H45.1465ZM42.6309 3.08984V14.6152H41.1953V8.39453H39.418V7.16406H41.1953V3.08984H42.6309ZM38.3242 6.23438C38.3242 8.32617 39.0762 10.418 40.8398 11.4297L39.9375 12.5508C38.7959 11.8672 38.0371 10.6914 37.6133 9.2832C37.1758 10.8076 36.3896 12.1064 35.2207 12.8379L34.291 11.7031C36.082 10.623 36.8613 8.38086 36.8613 6.23438V5.41406H34.7148V4.18359H40.3203V5.41406H38.3242V6.23438Z" fill="#9FA6B2"/>
</svg>
