<svg xmlns="http://www.w3.org/2000/svg" width="16" height="17" viewBox="0 0 16 17" fill="none">
  <path d="M2.6 4.1H13.4V14.5C13.4 15.2732 12.7732 15.9 12 15.9H4C3.2268 15.9 2.6 15.2732 2.6 14.5V4.1Z" stroke="#9FA6B2" stroke-width="1.2"/>
  <path d="M5.48387 2.0741C5.72102 1.5998 6.20579 1.3002 6.73607 1.3002H9.26393C9.79421 1.3002 10.279 1.5998 10.5161 2.0741L11.5292 4.1002H4.47082L5.48387 2.0741Z" stroke="#9FA6B2" stroke-width="1.2"/>
  <rect x="0.5" y="3.5" width="15" height="1.2" rx="0.6" fill="#9FA6B2"/>
  <rect x="8.59961" y="6.5" width="7" height="1.2" rx="0.6" transform="rotate(90 8.59961 6.5)" fill="#9FA6B2"/>
  <rect x="11.2002" y="6.5" width="7" height="1.2" rx="0.6" transform="rotate(90 11.2002 6.5)" fill="#9FA6B2"/>
  <rect x="6.2002" y="6.5" width="7" height="1.2" rx="0.6" transform="rotate(90 6.2002 6.5)" fill="#9FA6B2"/>
</svg>