<svg width="19" height="19" viewBox="0 0 19 19" fill="none" xmlns="http://www.w3.org/2000/svg">
<g id="pen">
<path id="Stroke 1 (Stroke)" fill-rule="evenodd" clip-rule="evenodd" d="M12.879 2.40879C13.3199 1.9679 14.0336 1.9679 14.4744 2.40879L17.1721 5.10643C17.613 5.54732 17.613 6.26099 17.1721 6.70187L8.17621 15.6978C8.09359 15.7804 7.9864 15.834 7.87074 15.8505L3.75309 16.4387C3.58483 16.4628 3.41507 16.4062 3.29489 16.286C3.1747 16.1658 3.11811 15.996 3.14215 15.8278L3.73039 11.7101C3.74691 11.5945 3.8005 11.4873 3.88312 11.4047L12.879 2.40879ZM13.7108 3.17246C13.6917 3.15335 13.6618 3.15335 13.6427 3.17246L4.77408 12.0411L4.31312 15.2678L7.53981 14.8068L16.4084 5.9382C16.4275 5.91908 16.4275 5.88923 16.4084 5.87011L13.7108 3.17246Z" fill="#9FA6B2"/>
<path id="Stroke 3 (Stroke)" fill-rule="evenodd" clip-rule="evenodd" d="M15.8225 3.7568C16.0333 3.96768 16.0333 4.30959 15.8225 4.52047L8.76363 11.5793C8.55275 11.7902 8.21084 11.7902 7.99996 11.5793C7.78908 11.3684 7.78908 11.0265 7.99996 10.8156L15.0588 3.7568C15.2697 3.54591 15.6116 3.54591 15.8225 3.7568Z" fill="#9FA6B2"/>
<path id="Stroke 5 (Stroke)" fill-rule="evenodd" clip-rule="evenodd" d="M3.88277 11.4043C4.09365 11.1934 4.43556 11.1934 4.64645 11.4043L8.17586 14.9337C8.38674 15.1446 8.38674 15.4865 8.17586 15.6973C7.96498 15.9082 7.62307 15.9082 7.41218 15.6973L3.88277 12.1679C3.67189 11.957 3.67189 11.6151 3.88277 11.4043Z" fill="#9FA6B2"/>
</g>
</svg>
