<svg width="16" height="11" viewBox="0 0 16 11" fill="none" xmlns="http://www.w3.org/2000/svg">
<path d="M8 3.27273C7.42135 3.27273 6.86639 3.5026 6.45722 3.91177C6.04805 4.32094 5.81818 4.87589 5.81818 5.45455C5.81818 6.0332 6.04805 6.58815 6.45722 6.99732C6.86639 7.40649 7.42135 7.63636 8 7.63636C8.57865 7.63636 9.13361 7.40649 9.54278 6.99732C9.95195 6.58815 10.1818 6.0332 10.1818 5.45455C10.1818 4.87589 9.95195 4.32094 9.54278 3.91177C9.13361 3.5026 8.57865 3.27273 8 3.27273ZM8 9.09091C7.03558 9.09091 6.11065 8.70779 5.4287 8.02584C4.74675 7.34389 4.36364 6.41897 4.36364 5.45455C4.36364 4.49012 4.74675 3.5652 5.4287 2.88325C6.11065 2.2013 7.03558 1.81818 8 1.81818C8.96442 1.81818 9.88935 2.2013 10.5713 2.88325C11.2532 3.5652 11.6364 4.49012 11.6364 5.45455C11.6364 6.41897 11.2532 7.34389 10.5713 8.02584C9.88935 8.70779 8.96442 9.09091 8 9.09091ZM8 0C4.36364 0 1.25818 2.26182 0 5.45455C1.25818 8.64727 4.36364 10.9091 8 10.9091C11.6364 10.9091 14.7418 8.64727 16 5.45455C14.7418 2.26182 11.6364 0 8 0Z" fill="#373740"/>
</svg>
