<svg width="28" height="28" viewBox="0 0 28 28" fill="none" xmlns="http://www.w3.org/2000/svg">
<g id="white">
<path id="Union" fill-rule="evenodd" clip-rule="evenodd" d="M13.9147 21.1024C12.4069 20.8759 10.9953 20.2555 9.86603 19.2751C9.81637 19.2313 9.76671 19.1847 9.71964 19.1406L9.71091 19.1324C9.60542 19.0362 9.50614 18.9369 9.40687 18.8345C9.30759 18.7322 9.21451 18.6267 9.12144 18.5212L9.07399 18.4658C8.99918 18.3786 8.92374 18.2907 8.85463 18.1985C7.80289 16.849 7.22894 15.2016 7.22894 13.458C7.22894 11.6647 7.83392 9.9677 8.9446 8.59641C8.95546 8.58245 8.96632 8.56927 8.97717 8.55608C8.98803 8.5429 8.99889 8.52971 9.00975 8.51575C9.16177 8.3327 9.32 8.15586 9.49063 7.98833C9.83811 7.64086 10.2135 7.33681 10.6106 7.0669C10.7254 6.98934 10.8402 6.91178 10.9581 6.84352C10.9814 6.82956 11.0054 6.8156 11.0294 6.80164C11.0535 6.78768 11.0775 6.77372 11.1008 6.75976C11.9633 6.27577 12.9188 5.95001 13.9178 5.79799C14.5849 5.69871 15.1712 5.34503 15.5715 4.8021C15.9717 4.25917 16.1392 3.59214 16.0368 2.92511C15.9344 2.25809 15.5808 1.66862 15.0409 1.2684C14.5321 0.893003 13.9178 0.728573 13.2942 0.790622V0.78752L13.2384 0.796827C13.226 0.798378 13.2136 0.799154 13.2012 0.799929C13.1888 0.800705 13.1764 0.801481 13.1639 0.803032C12.9406 0.837159 12.7203 0.877491 12.5 0.920925C10.0212 1.3987 7.73774 2.59315 5.9166 4.4143C0.940251 9.39064 0.930944 17.485 5.89178 22.4706L5.9197 22.4985L5.9228 22.5016L5.9259 22.5047C7.9394 24.5151 10.5082 25.7654 13.2911 26.1253V26.1098C13.9147 26.1719 14.5321 26.0074 15.0378 25.632C15.5808 25.2318 15.9344 24.6423 16.0337 23.9753C16.133 23.3083 15.9686 22.6413 15.5684 22.0983C15.1681 21.5554 14.5818 21.2017 13.9147 21.1024ZM21.9687 8.58712C23.9977 8.58712 25.6483 6.98314 25.6483 5.01308C25.6483 2.98407 23.9977 1.33356 21.9687 1.33356C19.9987 1.33356 18.3947 2.98407 18.3947 5.01308C18.3947 6.98314 19.9987 8.58712 21.9687 8.58712ZM21.6585 16.1695C24.2118 16.1695 25.1519 17.5718 25.49 18.7477C26.2005 21.2172 24.7672 25.5048 21.8508 27.3291L21.2924 27.6797V23.3021C19.4775 23.1159 18.0814 21.5895 18.0814 19.7436C18.0814 17.7735 19.6884 16.1695 21.6585 16.1695Z" fill="white"/>
</g>
</svg>
