<svg width="60" height="60" viewBox="0 0 60 60" fill="none" xmlns="http://www.w3.org/2000/svg">
<rect width="60" height="60" rx="30" fill="#8F00FF"/>
<path fill-rule="evenodd" clip-rule="evenodd" d="M28.9147 37.1019C27.4069 36.8755 25.9953 36.255 24.866 35.2746C24.8164 35.2308 24.7667 35.1842 24.7196 35.1401L24.7109 35.1319C24.6054 35.0357 24.5061 34.9364 24.4069 34.834C24.3076 34.7317 24.2145 34.6262 24.1214 34.5207L24.074 34.4653C23.9992 34.3781 23.9237 34.2902 23.8546 34.198C22.8029 32.8485 22.2289 31.2011 22.2289 29.4575C22.2289 27.6643 22.8339 25.9672 23.9446 24.5959C23.9555 24.582 23.9663 24.5688 23.9772 24.5556C23.988 24.5424 23.9989 24.5292 24.0098 24.5153C24.1618 24.3322 24.32 24.1554 24.4906 23.9878C24.8381 23.6404 25.2135 23.3363 25.6106 23.0664C25.7254 22.9888 25.8402 22.9113 25.9581 22.843C25.9814 22.8291 26.0054 22.8151 26.0294 22.8012C26.0535 22.7872 26.0775 22.7732 26.1008 22.7593C26.9633 22.2753 27.9188 21.9495 28.9178 21.7975C29.5849 21.6982 30.1712 21.3445 30.5715 20.8016C30.9717 20.2587 31.1392 19.5917 31.0368 18.9246C30.9344 18.2576 30.5808 17.6681 30.0409 17.2679C29.5321 16.8925 28.9178 16.7281 28.2942 16.7901V16.787L28.2384 16.7963C28.226 16.7979 28.2136 16.7987 28.2012 16.7994C28.1888 16.8002 28.1764 16.801 28.1639 16.8025C27.9406 16.8367 27.7203 16.877 27.5 16.9204C25.0212 17.3982 22.7377 18.5927 20.9166 20.4138C15.9403 25.3902 15.9309 33.4845 20.8918 38.4701L20.9197 38.498L20.9228 38.5012L20.9259 38.5043C22.9394 40.5146 25.5082 41.7649 28.2911 42.1248V42.1093C28.9147 42.1714 29.5321 42.0069 30.0378 41.6315C30.5808 41.2313 30.9344 40.6418 31.0337 39.9748C31.133 39.3078 30.9686 38.6408 30.5684 38.0978C30.1681 37.5549 29.5818 37.2012 28.9147 37.1019ZM36.9687 24.5866C38.9977 24.5866 40.6483 22.9827 40.6483 21.0126C40.6483 18.9836 38.9977 17.3331 36.9687 17.3331C34.9987 17.3331 33.3947 18.9836 33.3947 21.0126C33.3947 22.9827 34.9987 24.5866 36.9687 24.5866ZM36.6585 32.169C39.2118 32.169 40.1519 33.5714 40.49 34.7472C41.2005 37.2167 39.7672 41.5043 36.8508 43.3286L36.2924 43.6792V39.3016C34.4775 39.1154 33.0814 37.589 33.0814 35.7431C33.0814 33.773 34.6884 32.169 36.6585 32.169Z" fill="white"/>
</svg>
