<svg width="20" height="20" viewBox="0 0 20 20" fill="none" xmlns="http://www.w3.org/2000/svg">
<path d="M9.49787 7.51898C7.93707 7.51898 6.66333 8.79271 6.66333 10.3535C6.66333 11.9143 7.93707 13.1881 9.49787 13.1881C11.0587 13.1881 12.3324 11.9143 12.3324 10.3535C12.3324 8.79271 11.0587 7.51898 9.49787 7.51898ZM17.9994 10.3535C17.9994 9.17972 18.01 8.01656 17.9441 6.84489C17.8782 5.48398 17.5677 4.27616 16.5725 3.28099C15.5752 2.28369 14.3695 1.97535 13.0086 1.90944C11.8348 1.84352 10.6717 1.85415 9.5 1.85415C8.32621 1.85415 7.16305 1.84352 5.99138 1.90944C4.63046 1.97535 3.42264 2.28581 2.42747 3.28099C1.43017 4.27829 1.12184 5.48398 1.05592 6.84489C0.99 8.01869 1.00063 9.18185 1.00063 10.3535C1.00063 11.5252 0.99 12.6905 1.05592 13.8621C1.12184 15.2231 1.4323 16.4309 2.42747 17.426C3.42477 18.4233 4.63046 18.7317 5.99138 18.7976C7.16517 18.8635 8.32833 18.8529 9.5 18.8529C10.6738 18.8529 11.837 18.8635 13.0086 18.7976C14.3695 18.7317 15.5774 18.4212 16.5725 17.426C17.5698 16.4287 17.8782 15.2231 17.9441 13.8621C18.0121 12.6905 17.9994 11.5273 17.9994 10.3535ZM9.49787 14.7148C7.08437 14.7148 5.13655 12.767 5.13655 10.3535C5.13655 7.94001 7.08437 5.99219 9.49787 5.99219C11.9114 5.99219 13.8592 7.94001 13.8592 10.3535C13.8592 12.767 11.9114 14.7148 9.49787 14.7148ZM14.0378 6.83214C13.4743 6.83214 13.0193 6.37708 13.0193 5.81357C13.0193 5.25007 13.4743 4.79501 14.0378 4.79501C14.6013 4.79501 15.0564 5.25007 15.0564 5.81357C15.0565 5.94738 15.0303 6.07991 14.9792 6.20356C14.9281 6.32721 14.853 6.43956 14.7584 6.53418C14.6638 6.6288 14.5515 6.70382 14.4278 6.75494C14.3041 6.80607 14.1716 6.8323 14.0378 6.83214Z" fill="white"/>
</svg>
