<svg width="19" height="19" viewBox="0 0 19 19" fill="none" xmlns="http://www.w3.org/2000/svg">
<g clip-path="url(#clip0_18461_12490)">
<path fill-rule="evenodd" clip-rule="evenodd" d="M7.89462 11.045C7.63101 10.7813 7.63101 10.354 7.89462 10.0904L14.3291 3.52012H10.8676C10.4948 3.52012 10.1926 3.21792 10.1926 2.84512C10.1926 2.47233 10.4948 2.17012 10.8676 2.17012H15.9587C16.3315 2.17012 16.6337 2.47233 16.6337 2.84512L16.6337 7.93629C16.6337 8.30909 16.3315 8.61129 15.9587 8.61129C15.5859 8.61129 15.2837 8.30908 15.2837 7.93629L15.2837 4.47472L8.84921 11.045C8.58561 11.3086 8.15822 11.3086 7.89462 11.045Z" fill="#9FA6B2"/>
<path fill-rule="evenodd" clip-rule="evenodd" d="M5.00039 4.7748C4.37907 4.7748 3.87539 5.27848 3.87539 5.8998V13.9998C3.87539 14.6211 4.37907 15.1248 5.00039 15.1248H13.1004C13.7217 15.1248 14.2254 14.6211 14.2254 13.9998V10.8498C14.2254 10.477 14.5276 10.1748 14.9004 10.1748C15.2732 10.1748 15.5754 10.477 15.5754 10.8498V13.9998C15.5754 15.3667 14.4673 16.4748 13.1004 16.4748H5.00039C3.63349 16.4748 2.52539 15.3667 2.52539 13.9998V5.8998C2.52539 4.5329 3.63349 3.4248 5.00039 3.4248H8.15039C8.52318 3.4248 8.82539 3.72701 8.82539 4.0998C8.82539 4.4726 8.52318 4.7748 8.15039 4.7748H5.00039Z" fill="#9FA6B2"/>
</g>
<defs>
<clipPath id="clip0_18461_12490">
<rect width="18" height="18" fill="white" transform="translate(0.5 0.5)"/>
</clipPath>
</defs>
</svg>
