<svg width="15" height="15" viewBox="0 0 15 15" fill="none" xmlns="http://www.w3.org/2000/svg">
<path fill-rule="evenodd" clip-rule="evenodd" d="M9.879 0.408787C10.3199 -0.0320958 11.0336 -0.0320958 11.4744 0.408787L14.1721 3.10643C14.613 3.54732 14.613 4.26099 14.1721 4.70187L5.17621 13.6978C5.09359 13.7804 4.9864 13.834 4.87074 13.8505L0.753092 14.4387C0.584831 14.4628 0.415073 14.4062 0.294886 14.286C0.1747 14.1658 0.118114 13.996 0.142151 13.8278L0.730387 9.71014C0.74691 9.59447 0.800503 9.48729 0.883122 9.40467L9.879 0.408787ZM10.7108 1.17246C10.6917 1.15335 10.6618 1.15335 10.6427 1.17246L1.77408 10.0411L1.31312 13.2678L4.53981 12.8068L13.4084 3.9382C13.4275 3.91908 13.4275 3.88923 13.4084 3.87011L10.7108 1.17246Z" fill="#9FA6B2"/>
</svg>
