<svg width="20" height="20" viewBox="0 0 20 20" fill="none" xmlns="http://www.w3.org/2000/svg">
<g clip-path="url(#clip0_6956_68763)">
<path d="M19.5838 5.42142C19.4706 5.01745 19.25 4.65171 18.9455 4.36309C18.6324 4.06559 18.2487 3.85279 17.8305 3.74476C16.2655 3.33226 9.99551 3.33226 9.99551 3.33226C7.38162 3.30252 4.76837 3.43332 2.17051 3.72392C1.75234 3.83993 1.36932 4.0575 1.05551 4.35726C0.747181 4.65392 0.523848 5.01976 0.407181 5.42059C0.126925 6.93038 -0.00924233 8.46338 0.000514319 9.99892C-0.00948568 11.5331 0.126348 13.0656 0.407181 14.5773C0.521348 14.9764 0.743848 15.3406 1.05301 15.6348C1.36218 15.9289 1.74718 16.1414 2.17051 16.2539C3.75635 16.6656 9.99551 16.6656 9.99551 16.6656C12.6127 16.6954 15.2293 16.5646 17.8305 16.2739C18.2487 16.1659 18.6324 15.9531 18.9455 15.6556C19.2499 15.367 19.4702 15.0012 19.583 14.5973C19.8706 13.0881 20.0104 11.5544 20.0005 10.0181C20.0221 8.47526 19.8825 6.93439 19.5838 5.42059V5.42142ZM8.00218 12.8523V7.14642L13.2188 9.99976L8.00218 12.8523Z" fill="white"/>
</g>
<defs>
<clipPath id="clip0_6956_68763">
<rect width="20" height="20" fill="white"/>
</clipPath>
</defs>
</svg>
