<svg width="18" height="19" viewBox="0 0 18 19" fill="none" xmlns="http://www.w3.org/2000/svg">
<g id="share" clip-path="url(#clip0_6_3776)">
<path id="Vector 52 (Stroke)" fill-rule="evenodd" clip-rule="evenodd" d="M7.3951 11.045C7.1315 10.7813 7.1315 10.354 7.3951 10.0904L13.8296 3.52012H10.368C9.99525 3.52012 9.69304 3.21792 9.69304 2.84512C9.69304 2.47233 9.99525 2.17012 10.368 2.17012H15.4592C15.832 2.17012 16.1342 2.47233 16.1342 2.84512L16.1342 7.93629C16.1342 8.30909 15.832 8.61129 15.4592 8.61129C15.0864 8.61129 14.7842 8.30908 14.7842 7.93629L14.7842 4.47472L8.3497 11.045C8.0861 11.3086 7.65871 11.3086 7.3951 11.045Z" fill="#9FA6B2"/>
<path id="Rectangle 192 (Stroke)" fill-rule="evenodd" clip-rule="evenodd" d="M4.4999 4.7748C3.87858 4.7748 3.3749 5.27848 3.3749 5.8998V13.9998C3.3749 14.6211 3.87858 15.1248 4.4999 15.1248H12.5999C13.2212 15.1248 13.7249 14.6211 13.7249 13.9998V10.8498C13.7249 10.477 14.0271 10.1748 14.3999 10.1748C14.7727 10.1748 15.0749 10.477 15.0749 10.8498V13.9998C15.0749 15.3667 13.9668 16.4748 12.5999 16.4748H4.4999C3.133 16.4748 2.0249 15.3667 2.0249 13.9998V5.8998C2.0249 4.5329 3.133 3.4248 4.4999 3.4248H7.6499C8.02269 3.4248 8.3249 3.72701 8.3249 4.0998C8.3249 4.4726 8.02269 4.7748 7.6499 4.7748H4.4999Z" fill="#9FA6B2"/>
</g>
<defs>
<clipPath id="clip0_6_3776">
<rect width="18" height="18" fill="white" transform="translate(0 0.5)"/>
</clipPath>
</defs>
</svg>
