<svg width="14" height="15" viewBox="0 0 14 15" fill="none" xmlns="http://www.w3.org/2000/svg">
<path fill-rule="evenodd" clip-rule="evenodd" d="M7.52077 1.46603C7.52077 1.17148 7.28199 0.932696 6.98744 0.932695C6.69289 0.932695 6.4541 1.17148 6.4541 1.46603L6.45411 6.96668L0.953519 6.96668C0.658966 6.96668 0.420184 7.20546 0.420184 7.50001C0.420184 7.79456 0.658966 8.03335 0.953519 8.03335L6.45411 8.03335L6.45411 13.534C6.45411 13.8285 6.69289 14.0673 6.98744 14.0673C7.282 14.0673 7.52078 13.8285 7.52078 13.534L7.52078 8.03335L13.0215 8.03335C13.316 8.03335 13.5548 7.79457 13.5548 7.50002C13.5548 7.20546 13.316 6.96668 13.0215 6.96668L7.52078 6.96668L7.52077 1.46603Z" fill="#E7EFFB"/>
</svg>
