<svg width="14" height="15" viewBox="0 0 14 15" fill="none" xmlns="http://www.w3.org/2000/svg">
<path fill-rule="evenodd" clip-rule="evenodd" d="M7.52175 1.46603C7.52175 1.17148 7.28297 0.932696 6.98841 0.932695C6.69386 0.932695 6.45508 1.17148 6.45508 1.46603L6.45508 6.96668L0.954495 6.96668C0.659942 6.96668 0.42116 7.20546 0.42116 7.50001C0.42116 7.79456 0.659943 8.03335 0.954496 8.03335L6.45508 8.03335L6.45508 13.534C6.45508 13.8285 6.69387 14.0673 6.98842 14.0673C7.28297 14.0673 7.52175 13.8285 7.52175 13.534L7.52175 8.03335L13.0224 8.03335C13.317 8.03335 13.5558 7.79457 13.5558 7.50002C13.5558 7.20546 13.317 6.96668 13.0224 6.96668L7.52175 6.96668L7.52175 1.46603Z" fill="#6D6AFE"/>
</svg>
