<svg width="27" height="27" viewBox="0 0 27 27" fill="none" xmlns="http://www.w3.org/2000/svg">
<path d="M13.4099 1.25867C13.4458 1.18174 13.5552 1.18174 13.5911 1.25867L17.0608 8.68965C17.2162 9.02246 17.5275 9.25575 17.8905 9.31151L25.7019 10.5112C25.7822 10.5235 25.815 10.6214 25.7585 10.6797L20.065 16.5456C19.8228 16.7951 19.7128 17.1446 19.7686 17.4879L21.1068 25.7349C21.1202 25.8174 21.0325 25.8789 20.9595 25.8384L14.0348 21.9904L13.7919 22.4275L14.0348 21.9904C13.7025 21.8058 13.2984 21.8058 12.9662 21.9904L13.209 22.4275L12.9662 21.9904L6.0414 25.8384C5.96838 25.8789 5.88074 25.8174 5.89412 25.7349L7.23237 17.4879C7.28808 17.1446 7.17814 16.7951 6.9359 16.5456L1.24245 10.6797C1.18587 10.6214 1.21874 10.5235 1.29903 10.5112L9.11037 9.31151C9.47342 9.25575 9.78469 9.02246 9.94009 8.68965L13.4099 1.25867Z" fill="black" fill-opacity="0.2" stroke="white"/>
</svg>
