<svg width="18" height="19" viewBox="0 0 18 19" fill="none" xmlns="http://www.w3.org/2000/svg">
<g clip-path="url(#clip0_19397_2954)">
<path fill-rule="evenodd" clip-rule="evenodd" d="M7.39462 11.045C7.13101 10.7813 7.13101 10.354 7.39462 10.0904L13.8291 3.52012H10.3676C9.99476 3.52012 9.69255 3.21792 9.69255 2.84512C9.69255 2.47233 9.99476 2.17012 10.3676 2.17012H15.4587C15.8315 2.17012 16.1337 2.47233 16.1337 2.84512L16.1337 7.93629C16.1337 8.30909 15.8315 8.61129 15.4587 8.61129C15.0859 8.61129 14.7837 8.30908 14.7837 7.93629L14.7837 4.47472L8.34921 11.045C8.08561 11.3086 7.65822 11.3086 7.39462 11.045Z" fill="#9FA6B2"/>
<path fill-rule="evenodd" clip-rule="evenodd" d="M4.50039 4.7748C3.87907 4.7748 3.37539 5.27848 3.37539 5.8998V13.9998C3.37539 14.6211 3.87907 15.1248 4.50039 15.1248H12.6004C13.2217 15.1248 13.7254 14.6211 13.7254 13.9998V10.8498C13.7254 10.477 14.0276 10.1748 14.4004 10.1748C14.7732 10.1748 15.0754 10.477 15.0754 10.8498V13.9998C15.0754 15.3667 13.9673 16.4748 12.6004 16.4748H4.50039C3.13349 16.4748 2.02539 15.3667 2.02539 13.9998V5.8998C2.02539 4.5329 3.13349 3.4248 4.50039 3.4248H7.65039C8.02318 3.4248 8.32539 3.72701 8.32539 4.0998C8.32539 4.4726 8.02318 4.7748 7.65039 4.7748H4.50039Z" fill="#9FA6B2"/>
</g>
<defs>
<clipPath id="clip0_19397_2954">
<rect width="18" height="18" fill="white" transform="translate(0 0.5)"/>
</clipPath>
</defs>
</svg>
