<svg width="30" height="30" viewBox="0 0 30 30" fill="none" xmlns="http://www.w3.org/2000/svg">
<g clip-path="url(#clip0_6956_75412)">
<path d="M14.9094 2.25867C14.9453 2.18174 15.0547 2.18174 15.0906 2.25867L18.5603 9.68965C18.7157 10.0225 19.027 10.2557 19.3901 10.3115L27.2014 11.5112C27.2817 11.5235 27.3146 11.6214 27.258 11.6797L21.5645 17.5456C21.3223 17.7951 21.2124 18.1446 21.2681 18.4879L22.6063 26.7349C22.6197 26.8174 22.5321 26.8789 22.459 26.8384L15.5343 22.9904L15.2914 23.4275L15.5343 22.9904C15.202 22.8058 14.7979 22.8058 14.4657 22.9904L14.7085 23.4275L14.4657 22.9904L7.54091 26.8384C7.46789 26.8789 7.38025 26.8174 7.39363 26.7349L8.73188 18.4879C8.78759 18.1446 8.67765 17.7951 8.43541 17.5456L2.74197 11.6797C2.68538 11.6214 2.71825 11.5235 2.79854 11.5112L10.6099 10.3115C10.9729 10.2557 11.2842 10.0225 11.4396 9.68965L14.9094 2.25867Z" fill="black" fill-opacity="0.2" stroke="white"/>
</g>
<defs>
<clipPath id="clip0_6956_75412">
<rect width="30" height="30" fill="white"/>
</clipPath>
</defs>
</svg>
