<svg width="212" height="38" viewBox="0 0 212 38" fill="none" xmlns="http://www.w3.org/2000/svg">
<path d="M8.95058 24.866V1.25437H0.708008V32.0971H24.4008V24.866H8.95058Z" fill="#6D6AFE"/>
<path d="M35.0349 32.0971V8.1165H26.7923V32.0971H35.0349ZM35.0349 6.27184V0H26.7923V6.27184H35.0349Z" fill="#6D6AFE"/>
<path d="M53.2293 7.37864C49.9766 7.37864 47.4262 8.59612 45.689 10.6252V8.1165H37.4464V32.0971H45.689V21.3612C45.7629 16.7495 47.7958 14.7942 51.1224 14.7942C53.9685 14.7942 55.0774 16.233 55.0774 19.6641V32.0971H63.3199V18.2252C63.3199 10.9573 60.5847 7.37864 53.2293 7.37864Z" fill="#6D6AFE"/>
<path d="M73.6055 15.9748V0H65.363V32.0971H73.6055V26.4524L77.043 22.4311L81.0349 32.0971H90.1276L84.916 19.3689H79.6673L89.3884 8.1165H80.4066L73.6055 15.9748Z" fill="#6D6AFE"/>
<path d="M106.926 32.835C111.916 32.835 118.051 29.9942 118.051 20.1068C118.051 10.2194 111.916 7.37864 106.926 7.37864C104.154 7.37864 101.677 8.19029 99.6812 9.55534V0H91.4386V32.0971H99.6812V30.6583C101.677 32.0602 104.154 32.835 106.926 32.835ZM104.745 25.6408C101.899 25.6408 99.6812 24.2019 99.6812 20.1068V19.8117C99.7921 15.9748 101.973 14.5728 104.745 14.5728C107.924 14.5728 109.809 16.233 109.809 20.1068C109.809 24.0175 107.924 25.6408 104.745 25.6408Z" fill="#6D6AFE"/>
<path d="M119.355 32.0971H127.598V22.099C127.672 17.4505 129.779 14.7573 137.134 14.7573V7.37864C132.699 7.37864 129.557 8.92815 127.598 11.2524V8.1165H119.355V32.0971Z" fill="#6D6AFE"/>
<path d="M148.815 32.835C151.55 32.835 154.063 32.0602 156.059 30.6583V32.0971H164.302V8.1165H156.059V9.55534C154.063 8.19029 151.55 7.37864 148.815 7.37864C143.825 7.37864 137.689 10.2194 137.689 20.1068C137.689 29.9942 143.825 32.835 148.815 32.835ZM150.995 25.6408C147.817 25.6408 145.932 24.0175 145.932 20.1068C145.932 16.233 147.817 14.5728 150.995 14.5728C153.842 14.5728 156.059 16.0485 156.059 20.1068C156.059 24.2019 153.842 25.6408 150.995 25.6408Z" fill="#6D6AFE"/>
<path d="M166.345 32.0971H174.587V22.099C174.661 17.4505 176.768 14.7573 184.124 14.7573V7.37864C179.688 7.37864 176.546 8.92815 174.587 11.2524V8.1165H166.345V32.0971Z" fill="#6D6AFE"/>
<path d="M203.049 8.1165V18.5573C202.162 19.5534 200.572 19.9592 198.724 19.9592C194.806 19.9592 193.66 18.7417 193.66 16.4913V8.1165H185.418V17.0816C185.418 23.6485 190.075 27.1903 196.544 27.1903C198.946 27.1903 201.164 26.6738 203.049 25.7883V26.6738C203.049 29.9573 201.792 31.1379 198.539 31.1379C195.841 31.1379 194.548 30.3262 194.178 28.4447H185.898C186.564 35.233 190.223 38 198.539 38C207.595 38 211.291 34.6796 211.291 26.0466V8.1165H203.049Z" fill="#6D6AFE"/>
</svg>
