<svg width="46" height="46" viewBox="0 0 46 46" fill="none" xmlns="http://www.w3.org/2000/svg">
<g id="Group 20">
<circle id="Ellipse 20" cx="23" cy="23" r="23" fill="#6D6AFE"/>
<path id="Vector" d="M30 23V28C30 28.55 29.55 29 29 29H17C16.45 29 16 28.55 16 28V23C16 22.45 15.55 22 15 22C14.45 22 14 22.45 14 23V29C14 30.1 14.9 31 16 31H30C31.1 31 32 30.1 32 29V23C32 22.45 31.55 22 31 22C30.45 22 30 22.45 30 23ZM24 22.67L25.88 20.79C25.9726 20.6974 26.0825 20.624 26.2035 20.5739C26.3244 20.5238 26.4541 20.498 26.585 20.498C26.7159 20.498 26.8456 20.5238 26.9665 20.5739C27.0875 20.624 27.1974 20.6974 27.29 20.79C27.3826 20.8826 27.456 20.9925 27.5061 21.1135C27.5562 21.2344 27.582 21.3641 27.582 21.495C27.582 21.6259 27.5562 21.7556 27.5061 21.8765C27.456 21.9975 27.3826 22.1074 27.29 22.2L23.7 25.79C23.6075 25.8827 23.4976 25.9563 23.3766 26.0064C23.2557 26.0566 23.126 26.0824 22.995 26.0824C22.864 26.0824 22.7343 26.0566 22.6134 26.0064C22.4924 25.9563 22.3825 25.8827 22.29 25.79L18.7 22.2C18.513 22.013 18.408 21.7594 18.408 21.495C18.408 21.2306 18.513 20.977 18.7 20.79C18.887 20.603 19.1406 20.498 19.405 20.498C19.6694 20.498 19.923 20.603 20.11 20.79L22 22.67V14C22 13.45 22.45 13 23 13C23.55 13 24 13.45 24 14V22.67Z" fill="white"/>
</g>
</svg>
