<svg viewBox="0 0 19 19" fill="none" xmlns="http://www.w3.org/2000/svg">
<path d="M4.1 5.1H14.9V15.5C14.9 16.2732 14.2732 16.9 13.5 16.9H5.5C4.7268 16.9 4.1 16.2732 4.1 15.5V5.1Z" stroke="#9FA6B2" stroke-width="1.2"/>
<path d="M6.98387 3.0741C7.22102 2.5998 7.70579 2.3002 8.23607 2.3002H10.7639C11.2942 2.3002 11.779 2.5998 12.0161 3.0741L13.0292 5.1002H5.97082L6.98387 3.0741Z" stroke="#9FA6B2" stroke-width="1.2"/>
<rect x="2" y="4.5" width="15" height="1.2" rx="0.6" fill="#9FA6B2"/>
<rect x="10.0996" y="7.5" width="7" height="1.2" rx="0.6" transform="rotate(90 10.0996 7.5)" fill="#9FA6B2"/>
<rect x="12.7002" y="7.5" width="7" height="1.2" rx="0.6" transform="rotate(90 12.7002 7.5)" fill="#9FA6B2"/>
<rect x="7.7002" y="7.5" width="7" height="1.2" rx="0.6" transform="rotate(90 7.7002 7.5)" fill="#9FA6B2"/>
</svg>
