<svg width="20" height="14" viewBox="0 0 20 14" fill="none" xmlns="http://www.w3.org/2000/svg">
<path d="M19.5838 2.4224C19.4706 2.01843 19.25 1.65269 18.9455 1.36407C18.6324 1.06657 18.2487 0.853764 17.8305 0.745734C16.2655 0.333234 9.99551 0.333234 9.99551 0.333234C7.38162 0.303495 4.76837 0.434296 2.17051 0.7249C1.75234 0.840911 1.36932 1.05847 1.05551 1.35823C0.747181 1.6549 0.523848 2.02073 0.407181 2.42157C0.126925 3.93135 -0.00924233 5.46435 0.000514319 6.9999C-0.00948568 8.53407 0.126348 10.0666 0.407181 11.5782C0.521348 11.9774 0.743848 12.3416 1.05301 12.6357C1.36218 12.9299 1.74718 13.1424 2.17051 13.2549C3.75635 13.6666 9.99551 13.6666 9.99551 13.6666C12.6127 13.6963 15.2293 13.5655 17.8305 13.2749C18.2487 13.1669 18.6324 12.9541 18.9455 12.6566C19.2499 12.368 19.4702 12.0022 19.583 11.5982C19.8706 10.089 20.0104 8.55539 20.0005 7.01907C20.0221 5.47624 19.8825 3.93537 19.5838 2.42157V2.4224ZM8.00218 9.85323V4.1474L13.2188 7.00073L8.00218 9.85323Z" fill="white"/>
</svg>
