<svg width="19" height="18" viewBox="0 0 19 18" fill="none" xmlns="http://www.w3.org/2000/svg">
<g id="share" clip-path="url(#clip0_8681_1919)">
<path id="Vector 52 (Stroke)" fill-rule="evenodd" clip-rule="evenodd" d="M7.89462 10.545C7.63101 10.2813 7.63101 9.85396 7.89462 9.59036L14.3291 3.02012H10.8676C10.4948 3.02012 10.1926 2.71792 10.1926 2.34512C10.1926 1.97233 10.4948 1.67012 10.8676 1.67012H15.9587C16.3315 1.67012 16.6337 1.97233 16.6337 2.34512L16.6337 7.43629C16.6337 7.80909 16.3315 8.11129 15.9587 8.11129C15.5859 8.11129 15.2837 7.80908 15.2837 7.43629L15.2837 3.97472L8.84921 10.545C8.58561 10.8086 8.15822 10.8086 7.89462 10.545Z" fill="#9FA6B2"/>
<path id="Rectangle 192 (Stroke)" fill-rule="evenodd" clip-rule="evenodd" d="M5.00039 4.2748C4.37907 4.2748 3.87539 4.77848 3.87539 5.3998V13.4998C3.87539 14.1211 4.37907 14.6248 5.00039 14.6248H13.1004C13.7217 14.6248 14.2254 14.1211 14.2254 13.4998V10.3498C14.2254 9.97701 14.5276 9.67481 14.9004 9.67481C15.2732 9.67481 15.5754 9.97701 15.5754 10.3498V13.4998C15.5754 14.8667 14.4673 15.9748 13.1004 15.9748H5.00039C3.63349 15.9748 2.52539 14.8667 2.52539 13.4998V5.3998C2.52539 4.0329 3.63349 2.9248 5.00039 2.9248H8.15039C8.52318 2.9248 8.82539 3.22701 8.82539 3.5998C8.82539 3.9726 8.52318 4.2748 8.15039 4.2748H5.00039Z" fill="#9FA6B2"/>
</g>
<defs>
<clipPath id="clip0_8681_1919">
<rect width="18" height="18" fill="white" transform="translate(0.5)"/>
</clipPath>
</defs>
</svg>
