<svg width="35" height="34" viewBox="0 0 35 34" fill="none" xmlns="http://www.w3.org/2000/svg">
<g id="star" clip-path="url(#clip0_8615_2686)">
<path id="Star 1" d="M17.4094 2.37585C17.4453 2.29893 17.5547 2.29893 17.5906 2.37585L21.6136 10.9916C21.769 11.3244 22.0802 11.5577 22.4433 11.6135L31.4917 13.0032C31.5719 13.0155 31.6048 13.1134 31.5482 13.1717L24.9597 19.9597C24.7174 20.2093 24.6075 20.5588 24.6632 20.9021L26.2128 30.4513C26.2261 30.5338 26.1385 30.5953 26.0655 30.5547L18.0343 26.092C17.702 25.9073 17.298 25.9073 16.9657 26.092L8.93452 30.5547C8.8615 30.5953 8.77386 30.5338 8.78724 30.4513L10.3368 20.9021C10.3925 20.5587 10.2826 20.2093 10.0403 19.9597L3.45177 13.1717C3.39519 13.1134 3.42805 13.0155 3.50835 13.0032L12.5567 11.6135C12.9198 11.5577 13.231 11.3244 13.3864 10.9916L17.4094 2.37585Z" fill="black" fill-opacity="0.2" stroke="white"/>
</g>
<defs>
<clipPath id="clip0_8615_2686">
<rect width="34" height="34" fill="white" transform="translate(0.5)"/>
</clipPath>
</defs>
</svg>
