<svg width="127" height="35" viewBox="0 0 127 35" fill="none" xmlns="http://www.w3.org/2000/svg">
<rect x="0.5" y="0.5" width="126" height="34" rx="17" fill="#6D6AFE"/>
<rect x="0.5" y="0.5" width="126" height="34" rx="17" stroke="white"/>
<path d="M36.5688 10.6875V11.8125H34.5375V14.25H36.5063V15.3594H32.1156V16.5625H37.7719V17.7344H25.0063V16.5625H30.6313V15.3594H26.2406V14.25H28.225V11.8125H26.1781V10.6875H36.5688ZM36.1625 18.7344V21.8906H28.0063V23.0625H36.5531V24.1875H26.5531V20.8438H34.6938V19.8125H26.5375V18.7344H36.1625ZM29.6938 14.25H33.0531V11.8125H29.6938V14.25ZM45.6438 11.625V12.8594H40.7219V19.6875C43.0656 19.6797 44.6828 19.5938 46.5188 19.2344L46.6906 20.4531C44.675 20.8281 42.9719 20.9219 40.3313 20.9219H39.2219V11.625H45.6438ZM50.2219 10.3281V24.3594H48.7375V16.5625H44.8469V15.3281H48.7375V10.3281H50.2219ZM68.4344 18.7656V19.9844H62.7781V24.3438H61.3094V19.9844H55.6688V18.7656H68.4344ZM67.2156 12.0156V13.2188H62.7938C62.8797 14.7656 64.9891 16.2734 67.6531 16.6094L67.1219 17.7969C64.8719 17.4844 62.9578 16.4297 62.0594 15C61.1453 16.4453 59.2156 17.4844 56.9656 17.7969L56.4188 16.6094C59.0828 16.2734 61.2078 14.7969 61.3094 13.2188H56.8719V12.0156H61.3094V10.3281H62.7781V12.0156H67.2156ZM80.1031 10.3281V15.9062H82.275V17.1406H80.1031V24.3125H78.6188V10.3281H80.1031ZM76.4469 11.7969C76.4313 15.8438 74.65 19.4531 70.0406 21.7344L69.2125 20.5781C72.7203 18.8281 74.6266 16.2969 74.9313 13.0312H69.9156V11.7969H76.4469Z" fill="#E7EFFB"/>
<path fill-rule="evenodd" clip-rule="evenodd" d="M95.5208 11.466C95.5208 11.1715 95.282 10.9327 94.9874 10.9327C94.6929 10.9327 94.4541 11.1715 94.4541 11.466L94.4541 16.9667L88.9535 16.9667C88.659 16.9667 88.4202 17.2055 88.4202 17.5C88.4202 17.7946 88.659 18.0333 88.9535 18.0333L94.4541 18.0333L94.4541 23.534C94.4541 23.8285 94.6929 24.0673 94.9874 24.0673C95.282 24.0673 95.5208 23.8285 95.5208 23.534L95.5208 18.0333L101.021 18.0334C101.316 18.0333 101.555 17.7946 101.555 17.5C101.555 17.2055 101.316 16.9667 101.021 16.9667L95.5208 16.9667L95.5208 11.466Z" fill="#E7EFFB"/>
</svg>
