<svg width="80" height="19" viewBox="0 0 80 19" fill="none" xmlns="http://www.w3.org/2000/svg">
<path d="M13.0688 2.6875H2.67813V3.8125H4.725V6.25H2.74063V7.35938H7.13125V8.5625H1.50625V9.73438H14.2719V8.5625H8.61563V7.35938H13.0063V6.25H11.0375V3.8125H13.0688V2.6875ZM3.0375 11.8125H11.1938V12.8438H3.05313V16.1875H13.0531V15.0625H4.50625V13.8906H12.6625V10.7344H3.0375V11.8125ZM6.19375 6.25V3.8125H9.55313V6.25H6.19375ZM22.1438 3.625H15.7219V12.9219H16.8313C19.4719 12.9219 21.175 12.8359 23.1906 12.4531L23.0188 11.2344C21.175 11.5859 19.5734 11.6719 17.2219 11.6875V4.85938H22.1438V3.625ZM21.3469 8.5625H25.2375V16.3594H26.7219V2.32812H25.2375V7.32812H21.3469V8.5625ZM44.9344 10.7656H32.1688V11.9844H37.8094V16.3438H39.2781V11.9844H44.9344V10.7656ZM32.9188 8.60938L33.4656 9.79688C35.7234 9.48438 37.6453 8.44531 38.5516 7C39.4578 8.42969 41.3719 9.48438 43.6219 9.79688L44.1531 8.60938C41.4891 8.27344 39.3719 6.77344 39.2938 5.21875H43.7156V4.01562H39.2781V2.32812H37.8094V4.01562H33.3719V5.21875H37.8094C37.7156 6.78906 35.575 8.27344 32.9188 8.60938ZM56.6031 2.32812H55.1188V16.3125H56.6031V9.14062H58.775V7.90625H56.6031V2.32812ZM45.7125 12.5781L46.5406 13.7344C51.15 11.4609 52.9313 7.84375 52.9469 3.79688H46.4156V5.03125H51.4313C51.1266 8.29688 49.2203 10.8281 45.7125 12.5781Z" fill="#6D6AFE"/>
<path fill-rule="evenodd" clip-rule="evenodd" d="M72.0208 3.46603C72.0208 3.17148 71.782 2.9327 71.4874 2.9327C71.1929 2.9327 70.9541 3.17148 70.9541 3.46603L70.9541 8.96668L65.4535 8.96668C65.159 8.96668 64.9202 9.20546 64.9202 9.50001C64.9202 9.79456 65.159 10.0333 65.4535 10.0333L70.9541 10.0333L70.9541 15.534C70.9541 15.8285 71.1929 16.0673 71.4874 16.0673C71.782 16.0673 72.0208 15.8285 72.0208 15.534L72.0208 10.0333L77.5215 10.0334C77.816 10.0333 78.0548 9.79457 78.0548 9.50002C78.0548 9.20546 77.816 8.96668 77.5215 8.96668L72.0208 8.96668L72.0208 3.46603Z" fill="#6D6AFE"/>
</svg>
