<svg width="48" height="19" viewBox="0 0 48 19" fill="none" xmlns="http://www.w3.org/2000/svg">
<path d="M4.1 5.1H14.9V15.5C14.9 16.2732 14.2732 16.9 13.5 16.9H5.5C4.7268 16.9 4.1 16.2732 4.1 15.5V5.1Z" stroke="#9FA6B2" stroke-width="1.2"/>
<path d="M6.98387 3.0741C7.22102 2.5998 7.70579 2.3002 8.23607 2.3002H10.7639C11.2942 2.3002 11.779 2.5998 12.0161 3.0741L13.0292 5.1002H5.97082L6.98387 3.0741Z" stroke="#9FA6B2" stroke-width="1.2"/>
<rect x="2" y="4.5" width="15" height="1.2" rx="0.6" fill="#9FA6B2"/>
<rect x="10.0996" y="7.5" width="7" height="1.2" rx="0.6" transform="rotate(90 10.0996 7.5)" fill="#9FA6B2"/>
<rect x="12.7002" y="7.5" width="7" height="1.2" rx="0.6" transform="rotate(90 12.7002 7.5)" fill="#9FA6B2"/>
<rect x="7.7002" y="7.5" width="7" height="1.2" rx="0.6" transform="rotate(90 7.7002 7.5)" fill="#9FA6B2"/>
<path d="M27.3398 4.8125C27.3262 6.35742 28.3242 7.83398 30.252 8.44922L29.4863 9.63867C28.0918 9.19434 27.1143 8.26465 26.5879 7.08203C26.041 8.35352 25.0361 9.34473 23.5938 9.83008L22.8145 8.62695C24.8105 7.9707 25.8086 6.38477 25.8086 4.68945V3.5H27.3398V4.8125ZM32.6582 2.85742V5.96094H34.3809V7.23242H32.6582V10.3359H31.1406V2.85742H32.6582ZM32.6582 10.8828V15.2168H31.1406V12.0996H24.4277V10.8828H32.6582ZM45.6465 2.85742V15.2168H44.1973V2.85742H45.6465ZM43.1309 3.08984V14.6152H41.6953V8.39453H39.918V7.16406H41.6953V3.08984H43.1309ZM38.8242 6.23438C38.8242 8.32617 39.5762 10.418 41.3398 11.4297L40.4375 12.5508C39.2959 11.8672 38.5371 10.6914 38.1133 9.2832C37.6758 10.8076 36.8896 12.1064 35.7207 12.8379L34.791 11.7031C36.582 10.623 37.3613 8.38086 37.3613 6.23438V5.41406H35.2148V4.18359H40.8203V5.41406H38.8242V6.23438Z" fill="#9FA6B2"/>
</svg>
