<svg width="75" height="19" viewBox="0 0 75 19" fill="none" xmlns="http://www.w3.org/2000/svg">
<path fill-rule="evenodd" clip-rule="evenodd" d="M12.879 2.40879C13.3199 1.9679 14.0336 1.9679 14.4744 2.40879L17.1721 5.10643C17.613 5.54732 17.613 6.26099 17.1721 6.70187L8.17621 15.6978C8.09359 15.7804 7.9864 15.834 7.87074 15.8505L3.75309 16.4387C3.58483 16.4628 3.41507 16.4062 3.29489 16.286C3.1747 16.1658 3.11811 15.996 3.14215 15.8278L3.73039 11.7101C3.74691 11.5945 3.8005 11.4873 3.88312 11.4047L12.879 2.40879ZM13.7108 3.17246C13.6917 3.15335 13.6618 3.15335 13.6427 3.17246L4.77408 12.0411L4.31312 15.2678L7.53981 14.8068L16.4084 5.9382C16.4275 5.91908 16.4275 5.88923 16.4084 5.87011L13.7108 3.17246Z" fill="#9FA6B2"/>
<path fill-rule="evenodd" clip-rule="evenodd" d="M15.8225 3.7568C16.0333 3.96768 16.0333 4.30959 15.8225 4.52047L8.76363 11.5793C8.55275 11.7902 8.21084 11.7902 7.99996 11.5793C7.78908 11.3684 7.78908 11.0265 7.99996 10.8156L15.0588 3.7568C15.2697 3.54591 15.6116 3.54591 15.8225 3.7568Z" fill="#9FA6B2"/>
<path fill-rule="evenodd" clip-rule="evenodd" d="M3.88277 11.4043C4.09365 11.1934 4.43556 11.1934 4.64645 11.4043L8.17586 14.9337C8.38674 15.1446 8.38674 15.4865 8.17586 15.6973C7.96498 15.9082 7.62307 15.9082 7.41218 15.6973L3.88277 12.1679C3.67189 11.957 3.67189 11.6151 3.88277 11.4043Z" fill="#9FA6B2"/>
<path d="M33.1914 2.85742V15.2305H31.6602V2.85742H33.1914ZM26.5332 3.75977C28.3926 3.75977 29.7461 5.45508 29.7598 8.12109C29.7461 10.8145 28.3926 12.4961 26.5332 12.4961C24.6602 12.4961 23.3066 10.8145 23.3066 8.12109C23.3066 5.45508 24.6602 3.75977 26.5332 3.75977ZM26.5332 5.12695C25.4805 5.12695 24.7695 6.23438 24.7695 8.12109C24.7695 10.0215 25.4805 11.1289 26.5332 11.1289C27.5723 11.1289 28.2832 10.0215 28.2832 8.12109C28.2832 6.23438 27.5723 5.12695 26.5332 5.12695ZM46.2891 9.14648V10.3496H34.9961V9.14648H46.2891ZM44.8945 3.11719V6.28906H37.9355V7.17773H45.1406V8.33984H36.4316V5.18164H43.377V4.30664H36.3906V3.11719H44.8945ZM44.9355 11.2383V15.0664H36.4727V11.2383H44.9355ZM37.9629 12.4414V13.8359H43.4316V12.4414H37.9629ZM60.7812 2.87109V11.9902H59.2637V8.88672H56.7754V9.98047H50.9922V3.67773H52.5098V5.67383H55.2715V3.67773H56.7754V5.00391H59.2637V2.87109H60.7812ZM61.0547 13.7402V14.9707H52.6328V11.0879H54.1777V13.7402H61.0547ZM52.5098 8.77734H55.2715V6.84961H52.5098V8.77734ZM56.7754 7.65625H59.2637V6.23438H56.7754V7.65625ZM72.8809 2.87109V10.0898H71.3633V8.72266H68.4238V7.49219H71.3633V6.16602H68.5469C67.7607 8.13477 65.9629 9.50879 63.2695 10.2539L62.6543 9.05078C65.5459 8.26465 67.084 6.80176 67.3301 4.96289H63.3105V3.73242H68.9844C68.9844 4.16309 68.9502 4.57324 68.875 4.96289H71.3633V2.87109H72.8809ZM68.793 10.2266C71.2949 10.2266 72.9629 11.1699 72.9629 12.6875C72.9629 14.2051 71.2949 15.1484 68.793 15.1484C66.2637 15.1484 64.5957 14.2051 64.5957 12.6875C64.5957 11.1699 66.2637 10.2266 68.793 10.2266ZM68.793 11.416C67.125 11.416 66.1133 11.8672 66.1133 12.6875C66.1133 13.4941 67.125 13.9453 68.793 13.9453C70.4199 13.9453 71.4453 13.4941 71.4453 12.6875C71.4453 11.8672 70.4199 11.416 68.793 11.416Z" fill="#9FA6B2"/>
</svg>
