<svg width="28" height="28" viewBox="0 0 28 28" fill="none" xmlns="http://www.w3.org/2000/svg">
<circle id="Ellipse 21" cx="14" cy="14" r="14" fill="#6D6AFE"/>
<svg x="9" y="7" width="10" height="11" viewBox="0 0 10 11" fill="none" xmlns="http://www.w3.org/2000/svg">
<g id="myprofile">
<path id="Union" fill-rule="evenodd" clip-rule="evenodd" d="M5.00066 0.700195C3.88659 0.700195 2.98346 1.60333 2.98346 2.71739C2.98346 3.83146 3.88659 4.73459 5.00066 4.73459C6.11472 4.73459 7.01785 3.83146 7.01785 2.71739C7.01785 1.60333 6.11472 0.700195 5.00066 0.700195ZM0.833984 10.1881C0.833984 10.4118 1.01535 10.5932 1.23908 10.5932H8.76223C8.98595 10.5932 9.16732 10.4118 9.16732 10.1881C9.16732 7.88689 7.30184 6.02141 5.00065 6.02141C2.69946 6.02141 0.833984 7.88689 0.833984 10.1881Z" fill="white"/>
</g>
</svg>
</svg>
