<svg width="74" height="19" viewBox="0 0 74 19" fill="none" xmlns="http://www.w3.org/2000/svg">
<path fill-rule="evenodd" clip-rule="evenodd" d="M12.379 2.40879C12.8199 1.9679 13.5336 1.9679 13.9744 2.40879L16.6721 5.10643C17.113 5.54732 17.113 6.26099 16.6721 6.70187L7.67621 15.6978C7.59359 15.7804 7.4864 15.834 7.37074 15.8505L3.25309 16.4387C3.08483 16.4628 2.91507 16.4062 2.79489 16.286C2.6747 16.1658 2.61811 15.996 2.64215 15.8278L3.23039 11.7101C3.24691 11.5945 3.3005 11.4873 3.38312 11.4047L12.379 2.40879ZM13.2108 3.17246C13.1917 3.15335 13.1618 3.15335 13.1427 3.17246L4.27408 12.0411L3.81312 15.2678L7.03981 14.8068L15.9084 5.9382C15.9275 5.91908 15.9275 5.88923 15.9084 5.87011L13.2108 3.17246Z" fill="#9FA6B2"/>
<path fill-rule="evenodd" clip-rule="evenodd" d="M15.3225 3.7568C15.5333 3.96768 15.5333 4.30959 15.3225 4.52047L8.26363 11.5793C8.05275 11.7902 7.71084 11.7902 7.49996 11.5793C7.28908 11.3684 7.28908 11.0265 7.49996 10.8156L14.5588 3.7568C14.7697 3.54591 15.1116 3.54591 15.3225 3.7568Z" fill="#9FA6B2"/>
<path fill-rule="evenodd" clip-rule="evenodd" d="M3.38277 11.4043C3.59365 11.1934 3.93556 11.1934 4.14645 11.4043L7.67586 14.9337C7.88674 15.1446 7.88674 15.4865 7.67586 15.6973C7.46498 15.9082 7.12307 15.9082 6.91218 15.6973L3.38277 12.1679C3.17189 11.957 3.17189 11.6151 3.38277 11.4043Z" fill="#9FA6B2"/>
<path d="M32.6914 2.85742V15.2305H31.1602V2.85742H32.6914ZM26.0332 3.75977C27.8926 3.75977 29.2461 5.45508 29.2598 8.12109C29.2461 10.8145 27.8926 12.4961 26.0332 12.4961C24.1602 12.4961 22.8066 10.8145 22.8066 8.12109C22.8066 5.45508 24.1602 3.75977 26.0332 3.75977ZM26.0332 5.12695C24.9805 5.12695 24.2695 6.23438 24.2695 8.12109C24.2695 10.0215 24.9805 11.1289 26.0332 11.1289C27.0723 11.1289 27.7832 10.0215 27.7832 8.12109C27.7832 6.23438 27.0723 5.12695 26.0332 5.12695ZM45.7891 9.14648V10.3496H34.4961V9.14648H45.7891ZM44.3945 3.11719V6.28906H37.4355V7.17773H44.6406V8.33984H35.9316V5.18164H42.877V4.30664H35.8906V3.11719H44.3945ZM44.4355 11.2383V15.0664H35.9727V11.2383H44.4355ZM37.4629 12.4414V13.8359H42.9316V12.4414H37.4629ZM60.2812 2.87109V11.9902H58.7637V8.88672H56.2754V9.98047H50.4922V3.67773H52.0098V5.67383H54.7715V3.67773H56.2754V5.00391H58.7637V2.87109H60.2812ZM60.5547 13.7402V14.9707H52.1328V11.0879H53.6777V13.7402H60.5547ZM52.0098 8.77734H54.7715V6.84961H52.0098V8.77734ZM56.2754 7.65625H58.7637V6.23438H56.2754V7.65625ZM72.3809 2.87109V10.0898H70.8633V8.72266H67.9238V7.49219H70.8633V6.16602H68.0469C67.2607 8.13477 65.4629 9.50879 62.7695 10.2539L62.1543 9.05078C65.0459 8.26465 66.584 6.80176 66.8301 4.96289H62.8105V3.73242H68.4844C68.4844 4.16309 68.4502 4.57324 68.375 4.96289H70.8633V2.87109H72.3809ZM68.293 10.2266C70.7949 10.2266 72.4629 11.1699 72.4629 12.6875C72.4629 14.2051 70.7949 15.1484 68.293 15.1484C65.7637 15.1484 64.0957 14.2051 64.0957 12.6875C64.0957 11.1699 65.7637 10.2266 68.293 10.2266ZM68.293 11.416C66.625 11.416 65.6133 11.8672 65.6133 12.6875C65.6133 13.4941 66.625 13.9453 68.293 13.9453C69.9199 13.9453 70.9453 13.4941 70.9453 12.6875C70.9453 11.8672 69.9199 11.416 68.293 11.416Z" fill="#9FA6B2"/>
</svg>
