<svg xmlns="http://www.w3.org/2000/svg" width="19" height="20" viewBox="0 0 19 20" fill="none">
  <path fill-rule="evenodd" clip-rule="evenodd" d="M9.27584 14.7353C8.27064 14.5843 7.32957 14.1706 6.5767 13.517C6.54362 13.4879 6.51054 13.4568 6.47918 13.4274L6.47329 13.4219C6.40296 13.3578 6.33678 13.2916 6.27059 13.2233C6.20441 13.1551 6.14236 13.0848 6.08031 13.0144L6.04868 12.9775C5.99881 12.9194 5.94851 12.8608 5.90243 12.7993C5.20128 11.8996 4.81864 10.8014 4.81864 9.63897C4.81864 8.44349 5.22196 7.31213 5.96241 6.39793C5.96965 6.38863 5.97689 6.37984 5.98413 6.37105C5.99137 6.36226 5.99861 6.35347 6.00585 6.34416C6.1072 6.22213 6.21268 6.10423 6.32644 5.99255C6.55809 5.7609 6.80835 5.5582 7.0731 5.37826L7.0731 5.37826L7.0731 5.37825C7.14963 5.32655 7.22615 5.27484 7.30475 5.22934C7.32026 5.22003 7.33629 5.21073 7.35232 5.20142L7.35235 5.2014C7.36837 5.1921 7.38439 5.1828 7.39989 5.1735C7.97488 4.85084 8.61192 4.63367 9.27791 4.53232C9.7226 4.46614 10.1135 4.23035 10.3803 3.86839C10.6471 3.50644 10.7588 3.06175 10.6906 2.61707C10.6223 2.17238 10.3865 1.7794 10.0266 1.51259C9.68743 1.26233 9.27791 1.15271 8.86218 1.19407V1.19201L8.82495 1.19821C8.81668 1.19924 8.8084 1.19976 8.80013 1.20028C8.79186 1.2008 8.78359 1.20131 8.77531 1.20235C8.62639 1.2251 8.47954 1.25199 8.33269 1.28094C6.68012 1.59946 5.15784 2.39576 3.94375 3.60986C0.626183 6.92742 0.619978 12.3236 3.9272 15.6474L3.94582 15.666L3.94788 15.6681L3.94995 15.6702C5.29228 17.0104 7.00484 17.8439 8.86011 18.0839V18.0735C9.27584 18.1149 9.68743 18.0053 10.0246 17.755C10.3865 17.4882 10.6223 17.0952 10.6885 16.6505C10.7547 16.2058 10.6451 15.7612 10.3782 15.3992C10.1114 15.0373 9.72053 14.8015 9.27584 14.7353ZM14.6452 6.39174C15.9978 6.39174 17.0982 5.32242 17.0982 4.00905C17.0982 2.65637 15.9978 1.55603 14.6452 1.55603C13.3318 1.55603 12.2625 2.65637 12.2625 4.00905C12.2625 5.32242 13.3318 6.39174 14.6452 6.39174ZM14.4383 11.4467C16.1406 11.4467 16.7673 12.3816 16.9927 13.1654C17.4663 14.8118 16.5108 17.6702 14.5666 18.8864L14.1943 19.1201V16.2017C12.9843 16.0776 12.0536 15.06 12.0536 13.8294C12.0536 12.516 13.125 11.4467 14.4383 11.4467Z" fill="white"/>
</svg>