<svg width="16" height="17" viewBox="0 0 16 17" fill="none" xmlns="http://www.w3.org/2000/svg">
<g id="link">
<path id="Vector (Stroke)" fill-rule="evenodd" clip-rule="evenodd" d="M8.5169 2.33379C9.27131 1.60515 10.2817 1.20198 11.3305 1.21109C12.3793 1.2202 13.3825 1.64088 14.1242 2.38251C14.8658 3.12414 15.2865 4.12739 15.2956 5.17618C15.3047 6.22497 14.9015 7.23538 14.1729 7.98979L14.1648 7.99805L12.1649 9.99797C11.7594 10.4036 11.2713 10.7173 10.7339 10.9178C10.1965 11.1183 9.6223 11.2008 9.05018 11.1598C8.47807 11.1189 7.92146 10.9553 7.4181 10.6803C6.91475 10.4053 6.47643 10.0253 6.13286 9.56597C5.91233 9.27113 5.97255 8.85334 6.26739 8.6328C6.56222 8.41226 6.98001 8.47249 7.20055 8.76733C7.42959 9.07353 7.72181 9.32689 8.05738 9.51023C8.39295 9.69357 8.76402 9.80259 9.14543 9.82991C9.52684 9.85722 9.90966 9.80219 10.2679 9.66854C10.6262 9.5349 10.9515 9.32576 11.2219 9.05533L11.222 9.05524L13.2176 7.05956C13.701 6.55705 13.9684 5.88513 13.9623 5.18777C13.9562 4.48858 13.6758 3.81974 13.1814 3.32532C12.6869 2.8309 12.0181 2.55045 11.3189 2.54437C10.6212 2.53831 9.94905 2.80591 9.44647 3.28967L8.3034 4.42609C8.04229 4.68568 7.62019 4.68445 7.3606 4.42334C7.10101 4.16223 7.10224 3.74012 7.36335 3.48053L8.51001 2.34053L8.5169 2.33379Z" fill="#6D6AFE"/>
<path id="Vector (Stroke)_2" fill-rule="evenodd" clip-rule="evenodd" d="M5.26688 6.08234C5.80429 5.88187 6.37853 5.79932 6.95064 5.8403C7.52275 5.88127 8.07937 6.04481 8.58272 6.31981C9.08607 6.59482 9.5244 6.97486 9.86796 7.43416C10.0885 7.729 10.0283 8.14679 9.73344 8.36733C9.4386 8.58787 9.02081 8.52764 8.80027 8.2328C8.57123 7.9266 8.27902 7.67324 7.94345 7.4899C7.60788 7.30656 7.2368 7.19754 6.85539 7.17022C6.47398 7.14291 6.09116 7.19794 5.73289 7.33159C5.37462 7.46523 5.04928 7.67437 4.77894 7.9448L2.78318 9.94057C2.29982 10.4431 2.03245 11.115 2.03851 11.8124C2.04459 12.5116 2.32504 13.1804 2.81946 13.6748C3.31388 14.1692 3.98272 14.4497 4.68191 14.4558C5.37927 14.4618 6.05118 14.1945 6.55369 13.7111L7.68938 12.5754C7.94973 12.3151 8.37184 12.3151 8.63219 12.5754C8.89254 12.8358 8.89254 13.2579 8.63219 13.5182L7.49219 14.6582L7.48392 14.6663C6.72952 15.395 5.71911 15.7982 4.67032 15.789C3.62153 15.7799 2.61828 15.3593 1.87665 14.6176C1.13502 13.876 0.714343 12.8727 0.705229 11.8239C0.696116 10.7752 1.09929 9.76475 1.82793 9.01034L1.83605 9.00208L3.83596 7.00216C3.83593 7.00219 3.83599 7.00214 3.83596 7.00216C4.24145 6.59655 4.72952 6.28279 5.26688 6.08234Z" fill="#6D6AFE"/>
</g>
</svg>
