<svg width="89" height="16" viewBox="0 0 89 16" fill="none" xmlns="http://www.w3.org/2000/svg">
<g id="logo">
<g id="Linkbrary">
<path d="M3.47055 10.4699V0.528155H0V13.5146H9.9759V10.4699H3.47055Z" fill="#6D6AFE"/>
<path d="M14.4534 13.5146V3.41748H10.9829V13.5146H14.4534ZM14.4534 2.64078V0H10.9829V2.64078H14.4534Z" fill="#6D6AFE"/>
<path d="M22.1142 3.1068C20.7447 3.1068 19.6708 3.61942 18.9393 4.47379V3.41748H15.4688V13.5146H18.9393V8.99417C18.9705 7.05243 19.8264 6.22913 21.2271 6.22913C22.4255 6.22913 22.8924 6.83495 22.8924 8.27961V13.5146H26.3629V7.67379C26.3629 4.61359 25.2112 3.1068 22.1142 3.1068Z" fill="#6D6AFE"/>
<path d="M30.6937 6.72621V0H27.2231V13.5146H30.6937V11.1379L32.141 9.44466L33.8219 13.5146H37.6504L35.456 8.15534H33.246L37.3391 3.41748H33.5573L30.6937 6.72621Z" fill="#6D6AFE"/>
<path d="M44.7233 13.8252C46.8243 13.8252 49.4077 12.6291 49.4077 8.46602C49.4077 4.30291 46.8243 3.1068 44.7233 3.1068C43.556 3.1068 42.5133 3.44854 41.6729 4.0233V0H38.2024V13.5146H41.6729V12.9087C42.5133 13.499 43.556 13.8252 44.7233 13.8252ZM43.805 10.7961C42.6067 10.7961 41.6729 10.1903 41.6729 8.46602V8.34175C41.7196 6.72621 42.6378 6.13592 43.805 6.13592C45.1435 6.13592 45.9372 6.83495 45.9372 8.46602C45.9372 10.1126 45.1435 10.7961 43.805 10.7961Z" fill="#6D6AFE"/>
<path d="M49.9567 13.5146H53.4272V9.30485C53.4584 7.34757 54.3455 6.21359 57.4425 6.21359V3.1068C55.5749 3.1068 54.2521 3.75922 53.4272 4.73786V3.41748H49.9567V13.5146Z" fill="#6D6AFE"/>
<path d="M62.3607 13.8252C63.5123 13.8252 64.5706 13.499 65.411 12.9087V13.5146H68.8816V3.41748H65.411V4.0233C64.5706 3.44854 63.5123 3.1068 62.3607 3.1068C60.2597 3.1068 57.6762 4.30291 57.6762 8.46602C57.6762 12.6291 60.2597 13.8252 62.3607 13.8252ZM63.2789 10.7961C61.9405 10.7961 61.1468 10.1126 61.1468 8.46602C61.1468 6.83495 61.9405 6.13592 63.2789 6.13592C64.4772 6.13592 65.411 6.75728 65.411 8.46602C65.411 10.1903 64.4772 10.7961 63.2789 10.7961Z" fill="#6D6AFE"/>
<path d="M69.7418 13.5146H73.2123V9.30485C73.2435 7.34757 74.1306 6.21359 77.2276 6.21359V3.1068C75.36 3.1068 74.0372 3.75922 73.2123 4.73786V3.41748H69.7418V13.5146Z" fill="#6D6AFE"/>
<path d="M85.1961 3.41748V7.81359C84.8226 8.23301 84.1534 8.40388 83.3752 8.40388C81.7256 8.40388 81.2431 7.89126 81.2431 6.94369V3.41748H77.7726V7.19223C77.7726 9.95728 79.7335 11.4485 82.457 11.4485C83.4686 11.4485 84.4024 11.2311 85.1961 10.8583V11.2311C85.1961 12.6136 84.667 13.1107 83.2974 13.1107C82.1613 13.1107 81.6166 12.7689 81.461 11.9767H77.9749C78.255 14.835 79.7957 16 83.2974 16C87.1104 16 88.6667 14.6019 88.6667 10.967V3.41748H85.1961Z" fill="#6D6AFE"/>
</g>
</g>
</svg>
