<svg width="89" height="17" viewBox="0 0 89 17" fill="none" xmlns="http://www.w3.org/2000/svg">
<g id="logo">
<g id="Linkbrary">
<path d="M3.47055 10.9699V1.02815H0V14.0146H9.9759V10.9699H3.47055Z" fill="#6D6AFE"/>
<path d="M14.4534 14.0146V3.91748H10.9829V14.0146H14.4534ZM14.4534 3.14078V0.5H10.9829V3.14078H14.4534Z" fill="#6D6AFE"/>
<path d="M22.1142 3.6068C20.7447 3.6068 19.6708 4.11942 18.9393 4.97379V3.91748H15.4688V14.0146H18.9393V9.49417C18.9705 7.55243 19.8264 6.72913 21.2271 6.72913C22.4255 6.72913 22.8924 7.33495 22.8924 8.77961V14.0146H26.3629V8.17379C26.3629 5.11359 25.2112 3.6068 22.1142 3.6068Z" fill="#6D6AFE"/>
<path d="M30.6937 7.22621V0.5H27.2231V14.0146H30.6937V11.6379L32.141 9.94466L33.8219 14.0146H37.6504L35.456 8.65534H33.246L37.3391 3.91748H33.5573L30.6937 7.22621Z" fill="#6D6AFE"/>
<path d="M44.7233 14.3252C46.8243 14.3252 49.4077 13.1291 49.4077 8.96602C49.4077 4.80291 46.8243 3.6068 44.7233 3.6068C43.556 3.6068 42.5133 3.94854 41.6729 4.5233V0.5H38.2024V14.0146H41.6729V13.4087C42.5133 13.999 43.556 14.3252 44.7233 14.3252ZM43.805 11.2961C42.6067 11.2961 41.6729 10.6903 41.6729 8.96602V8.84175C41.7196 7.22621 42.6378 6.63592 43.805 6.63592C45.1435 6.63592 45.9372 7.33495 45.9372 8.96602C45.9372 10.6126 45.1435 11.2961 43.805 11.2961Z" fill="#6D6AFE"/>
<path d="M49.9567 14.0146H53.4272V9.80485C53.4584 7.84757 54.3455 6.71359 57.4425 6.71359V3.6068C55.5749 3.6068 54.2521 4.25922 53.4272 5.23786V3.91748H49.9567V14.0146Z" fill="#6D6AFE"/>
<path d="M62.3607 14.3252C63.5123 14.3252 64.5706 13.999 65.411 13.4087V14.0146H68.8816V3.91748H65.411V4.5233C64.5706 3.94854 63.5123 3.6068 62.3607 3.6068C60.2597 3.6068 57.6762 4.80291 57.6762 8.96602C57.6762 13.1291 60.2597 14.3252 62.3607 14.3252ZM63.2789 11.2961C61.9405 11.2961 61.1468 10.6126 61.1468 8.96602C61.1468 7.33495 61.9405 6.63592 63.2789 6.63592C64.4772 6.63592 65.411 7.25728 65.411 8.96602C65.411 10.6903 64.4772 11.2961 63.2789 11.2961Z" fill="#6D6AFE"/>
<path d="M69.7418 14.0146H73.2123V9.80485C73.2435 7.84757 74.1306 6.71359 77.2276 6.71359V3.6068C75.36 3.6068 74.0372 4.25922 73.2123 5.23786V3.91748H69.7418V14.0146Z" fill="#6D6AFE"/>
<path d="M85.1961 3.91748V8.31359C84.8226 8.73301 84.1534 8.90388 83.3752 8.90388C81.7256 8.90388 81.2431 8.39126 81.2431 7.44369V3.91748H77.7726V7.69223C77.7726 10.4573 79.7335 11.9485 82.457 11.9485C83.4686 11.9485 84.4024 11.7311 85.1961 11.3583V11.7311C85.1961 13.1136 84.667 13.6107 83.2974 13.6107C82.1613 13.6107 81.6166 13.2689 81.461 12.4767H77.9749C78.255 15.335 79.7957 16.5 83.2974 16.5C87.1104 16.5 88.6667 15.1019 88.6667 11.467V3.91748H85.1961Z" fill="#6D6AFE"/>
</g>
</g>
</svg>
