<svg xmlns="http://www.w3.org/2000/svg" width="18" height="18" viewBox="0 0 18 18" fill="none">
  <g clip-path="url(#clip0_17961_10967)">
    <path fill-rule="evenodd" clip-rule="evenodd" d="M9.58151 2.06398C10.4302 1.24427 11.5669 0.790698 12.7468 0.800951C13.9267 0.811204 15.0554 1.28446 15.8897 2.1188C16.724 2.95314 17.1973 4.08179 17.2075 5.26168C17.2178 6.44157 16.7642 7.57828 15.9445 8.42699L15.9354 8.43628L13.6855 10.6862C13.2293 11.1425 12.6803 11.4955 12.0757 11.721C11.4711 11.9465 10.8251 12.0394 10.1815 11.9933C9.53783 11.9472 8.91164 11.7632 8.34537 11.4538C7.77909 11.1445 7.28598 10.7169 6.89947 10.2002C6.65137 9.8685 6.71912 9.39848 7.05081 9.15038C7.3825 8.90227 7.85251 8.97003 8.10062 9.30172C8.35829 9.6462 8.68703 9.93123 9.06455 10.1375C9.44206 10.3437 9.85952 10.4664 10.2886 10.4971C10.7177 10.5278 11.1484 10.4659 11.5514 10.3156C11.9545 10.1652 12.3205 9.92996 12.6246 9.62572L12.6247 9.62562L14.8699 7.38049C15.4136 6.81516 15.7144 6.05925 15.7076 5.27471C15.7008 4.48812 15.3853 3.73569 14.829 3.17946C14.2728 2.62324 13.5204 2.30773 12.7338 2.3009C11.9489 2.29407 11.1927 2.59513 10.6273 3.13935L9.34133 4.41782C9.04758 4.70986 8.57271 4.70848 8.28067 4.41473C7.98863 4.12099 7.99002 3.64612 8.28376 3.35408L9.57376 2.07158L9.58151 2.06398Z" fill="#6D6AFE"/>
    <path fill-rule="evenodd" clip-rule="evenodd" d="M5.92402 6.27989C6.52861 6.05436 7.17462 5.9615 7.81825 6.00759C8.46188 6.05369 9.08807 6.23766 9.65434 6.54705C10.2206 6.85643 10.7137 7.28398 11.1002 7.80069C11.3483 8.13238 11.2806 8.60239 10.9489 8.8505C10.6172 9.0986 10.1472 9.03085 9.89909 8.69916C9.64142 8.35468 9.31267 8.06965 8.93516 7.86339C8.55764 7.65714 8.14018 7.53449 7.7111 7.50376C7.28201 7.47303 6.85134 7.53494 6.44828 7.68529C6.04523 7.83564 5.67922 8.07092 5.37509 8.37516L3.12986 10.6204C2.58608 11.1857 2.28529 11.9416 2.29211 12.7262C2.29894 13.5128 2.61445 14.2652 3.17067 14.8214C3.7269 15.3776 4.47933 15.6931 5.26592 15.7C6.05046 15.7068 6.80636 15.406 7.37169 14.8622L8.64933 13.5846C8.94222 13.2917 9.4171 13.2917 9.70999 13.5846C10.0029 13.8775 10.0029 14.3524 9.70999 14.6453L8.42749 15.9278L8.41819 15.9369C7.56949 16.7566 6.43278 17.2102 5.25289 17.1999C4.073 17.1897 2.94435 16.7164 2.11001 15.8821C1.27568 15.0477 0.802415 13.9191 0.792162 12.7392C0.781909 11.5593 1.23548 10.4226 2.0552 9.57389L2.06433 9.5646L4.31424 7.31469C4.3142 7.31472 4.31427 7.31466 4.31424 7.31469C4.77041 6.85837 5.31948 6.5054 5.92402 6.27989Z" fill="#6D6AFE"/>
  </g>
  <defs>
    <clipPath id="clip0_17961_10967">
      <rect width="18" height="18" fill="white"/>
    </clipPath>
  </defs>
</svg>