<svg width="18" height="19" viewBox="0 0 18 19" fill="none" xmlns="http://www.w3.org/2000/svg">
<g id="pen">
<path id="Stroke 1 (Stroke)" fill-rule="evenodd" clip-rule="evenodd" d="M12.379 2.40879C12.8199 1.9679 13.5336 1.9679 13.9744 2.40879L16.6721 5.10643C17.113 5.54732 17.113 6.26099 16.6721 6.70187L7.67621 15.6978C7.59359 15.7804 7.4864 15.834 7.37074 15.8505L3.25309 16.4387C3.08483 16.4628 2.91507 16.4062 2.79489 16.286C2.6747 16.1658 2.61811 15.996 2.64215 15.8278L3.23039 11.7101C3.24691 11.5945 3.3005 11.4873 3.38312 11.4047L12.379 2.40879ZM13.2108 3.17246C13.1917 3.15335 13.1618 3.15335 13.1427 3.17246L4.27408 12.0411L3.81312 15.2678L7.03981 14.8068L15.9084 5.9382C15.9275 5.91908 15.9275 5.88923 15.9084 5.87011L13.2108 3.17246Z" fill="#9FA6B2"/>
<path id="Stroke 3 (Stroke)" fill-rule="evenodd" clip-rule="evenodd" d="M15.3225 3.7568C15.5333 3.96768 15.5333 4.30959 15.3225 4.52047L8.26363 11.5793C8.05275 11.7902 7.71084 11.7902 7.49996 11.5793C7.28908 11.3684 7.28908 11.0265 7.49996 10.8156L14.5588 3.7568C14.7697 3.54591 15.1116 3.54591 15.3225 3.7568Z" fill="#9FA6B2"/>
<path id="Stroke 5 (Stroke)" fill-rule="evenodd" clip-rule="evenodd" d="M3.38277 11.4043C3.59365 11.1934 3.93556 11.1934 4.14645 11.4043L7.67586 14.9337C7.88674 15.1446 7.88674 15.4865 7.67586 15.6973C7.46498 15.9082 7.12307 15.9082 6.91218 15.6973L3.38277 12.1679C3.17189 11.957 3.17189 11.6151 3.38277 11.4043Z" fill="#9FA6B2"/>
</g>
</svg>
