<svg width="18" height="18" viewBox="0 0 18 18" fill="none" xmlns="http://www.w3.org/2000/svg">
<g id="pen">
<path id="Stroke 1 (Stroke)" fill-rule="evenodd" clip-rule="evenodd" d="M12.3785 1.90879C12.8194 1.4679 13.5331 1.4679 13.974 1.90879L16.6716 4.60643C17.1125 5.04732 17.1125 5.76099 16.6716 6.20187L7.67572 15.1978C7.5931 15.2804 7.48592 15.334 7.37025 15.3505L3.2526 15.9387C3.08434 15.9628 2.91458 15.9062 2.7944 15.786C2.67421 15.6658 2.61763 15.496 2.64166 15.3278L3.2299 11.2101C3.24642 11.0945 3.30002 10.9873 3.38263 10.9047L12.3785 1.90879ZM13.2103 2.67246C13.1912 2.65335 13.1613 2.65335 13.1422 2.67246L4.27359 11.5411L3.81263 14.7678L7.03933 14.3068L15.9079 5.4382C15.927 5.41908 15.927 5.38923 15.9079 5.37011L13.2103 2.67246Z" fill="#9FA6B2"/>
<path id="Stroke 3 (Stroke)" fill-rule="evenodd" clip-rule="evenodd" d="M15.3229 3.25777C15.5338 3.46865 15.5338 3.81056 15.3229 4.02145L8.26412 11.0803C8.05324 11.2912 7.71133 11.2912 7.50045 11.0803C7.28956 10.8694 7.28956 10.5275 7.50045 10.3166L14.5593 3.25777C14.7702 3.04689 15.1121 3.04689 15.3229 3.25777Z" fill="#9FA6B2"/>
<path id="Stroke 5 (Stroke)" fill-rule="evenodd" clip-rule="evenodd" d="M3.38277 10.9043C3.59365 10.6934 3.93556 10.6934 4.14645 10.9043L7.67586 14.4337C7.88674 14.6446 7.88674 14.9865 7.67586 15.1973C7.46498 15.4082 7.12307 15.4082 6.91218 15.1973L3.38277 11.6679C3.17189 11.457 3.17189 11.1151 3.38277 10.9043Z" fill="#9FA6B2"/>
</g>
</svg>
