<svg width="17" height="17" viewBox="0 0 17 17" fill="none" xmlns="http://www.w3.org/2000/svg">
<g id="add">
<path id="Union" fill-rule="evenodd" clip-rule="evenodd" d="M9.02077 2.46603C9.02077 2.17148 8.78199 1.9327 8.48744 1.9327C8.19289 1.9327 7.9541 2.17148 7.9541 2.46603L7.95411 7.96668L2.45352 7.96668C2.15897 7.96668 1.92018 8.20546 1.92018 8.50001C1.92018 8.79456 2.15897 9.03335 2.45352 9.03335L7.95411 9.03335L7.95411 14.534C7.95411 14.8285 8.19289 15.0673 8.48744 15.0673C8.782 15.0673 9.02078 14.8285 9.02078 14.534L9.02078 9.03335L14.5215 9.03335C14.816 9.03335 15.0548 8.79457 15.0548 8.50002C15.0548 8.20546 14.816 7.96668 14.5215 7.96668L9.02078 7.96668L9.02077 2.46603Z" fill="#6D6AFE"/>
</g>
</svg>
