<svg width="1060" height="54" viewBox="0 0 1060 54" fill="none" xmlns="http://www.w3.org/2000/svg">
<rect width="1060" height="54" rx="10" fill="#F5F5F5"/>
<path d="M23.8439 32.8363C27.1534 32.8363 29.8363 30.1534 29.8363 26.8439C29.8363 23.5344 27.1534 20.8516 23.8439 20.8516C20.5344 20.8516 17.8516 23.5344 17.8516 26.8439C17.8516 30.1534 20.5344 32.8363 23.8439 32.8363Z" stroke="#666666" stroke-width="1.5" stroke-linecap="round" stroke-linejoin="round"/>
<path d="M28.0117 31.3232L30.3611 33.6665" stroke="#666666" stroke-width="1.5" stroke-linecap="round" stroke-linejoin="round"/>
<path d="M54.4844 20.3906V28.9375H53.2656V20.3906H54.4844ZM50.0625 21.2656V25.0781H44.9375V27.0469C47.4219 27.0469 49.2812 26.9844 51.5312 26.6094L51.6719 27.625C49.3438 28 47.4375 28.0781 44.875 28.0781H43.75V24.1094H48.8438V22.2969H43.7188V21.2656H50.0625ZM49.875 29.2188C52.7969 29.2188 54.5781 30.1406 54.5781 31.7344C54.5781 33.3281 52.7969 34.2344 49.875 34.2344C46.9531 34.2344 45.1875 33.3281 45.1875 31.7344C45.1875 30.1406 46.9531 29.2188 49.875 29.2188ZM49.875 30.2031C47.7188 30.2031 46.3906 30.7812 46.3906 31.7344C46.3906 32.6875 47.7188 33.25 49.875 33.25C52.0312 33.25 53.3438 32.6875 53.3438 31.7344C53.3438 30.7812 52.0312 30.2031 49.875 30.2031ZM67.9219 21.7969V23.5156C67.9219 25.5625 67.9219 27.4531 67.3438 30.2656L66.1094 30.1562C66.4141 28.8203 66.5703 27.6641 66.6562 26.5781L58.1719 27.0469L58 26.0312L66.7031 25.6719C66.7266 24.9375 66.7266 24.2266 66.7344 23.5156V22.8281H58.375V21.7969H67.9219ZM69.5 31.2812V32.3125H56.8438V31.2812H69.5ZM83.375 26.8281V27.7969H70.6562V26.8281H83.375ZM81.7812 28.9062V31.8594H73.4375V33.1875H82.2344V34.0781H72.2031V31.0156H80.5625V29.8281H72.1875V28.9062H81.7812ZM81.7344 20.7969V23.6719H73.5312V24.8906H81.9844V25.7812H72.3125V22.8281H80.5V21.6875H72.2656V20.7969H81.7344ZM95.6875 21.2812C95.6719 24.7656 93.1875 27.2656 89.1875 28.4062L88.6719 27.4375C91.9922 26.5 94.1094 24.6562 94.375 22.2969H89.3906V21.2812H95.6875ZM100.031 20.3906V28.3125H98.7969V25H95.7188V23.9688H98.7969V20.3906H100.031ZM100.031 28.9062V34.0781H91.0156V28.9062H100.031ZM92.2031 29.8906V33.0781H98.8125V29.8906H92.2031ZM106.484 23.0938C106.484 24.6719 107.547 26.2656 109.328 26.9688L108.672 27.9219C107.359 27.375 106.398 26.3594 105.906 25.125C105.391 26.4766 104.391 27.6562 103.031 28.2656L102.359 27.3125C104.188 26.5 105.312 24.6719 105.312 23.0938V21.2344H106.484V23.0938ZM114.141 20.3906V28.7812H112.969V25.0469H111.125V28.7031H109.969V20.6406H111.125V24.0156H112.969V20.3906H114.141ZM114.141 29.5469V34.2656H112.938V30.5625H104.781V29.5469H114.141ZM123.109 22.7812V23.7812H116.141V22.7812H119.031V20.7969H120.25V22.7812H123.109ZM119.625 24.7188C121.375 24.7188 122.625 26.0312 122.641 27.875C122.625 29.7344 121.375 31.0625 119.625 31.0625C117.891 31.0625 116.641 29.7344 116.641 27.875C116.641 26.0312 117.891 24.7188 119.625 24.7188ZM119.625 25.75C118.531 25.7656 117.734 26.6562 117.734 27.875C117.734 29.1094 118.531 30 119.625 29.9844C120.734 30 121.547 29.1094 121.547 27.875C121.547 26.6562 120.734 25.7656 119.625 25.75ZM128 20.375V34.2656H126.828V27.25H124.984V33.5781H123.828V20.7188H124.984V26.2344H126.828V20.375H128ZM146.734 31.4688V32.4844H134.016V31.4688H139.734V28.4688H135.516V21.3594H136.75V23.875H143.969V21.3594H145.172V28.4688H140.938V31.4688H146.734ZM136.75 27.4688H143.969V24.875H136.75V27.4688ZM151.969 24.3281C151.969 26.5312 153.047 28.9219 154.891 30.0156L154.188 30.9688C152.852 30.1562 151.891 28.6719 151.406 26.9844C150.891 28.8281 149.859 30.4141 148.469 31.2656L147.688 30.3438C149.609 29.2188 150.781 26.75 150.781 24.375V21.6875H151.969V24.3281ZM159.75 20.375V34.2656H158.562V20.375H159.75ZM156.875 20.6719V33.5625H155.719V26.4062H153.359V25.3594H155.719V20.6719H156.875ZM174.391 31.4531V32.4844H161.672V31.4531H164.828V27.7031C163.641 27.0859 162.922 26.0859 162.922 24.8281C162.922 22.6719 165.031 21.2656 168 21.25C170.969 21.2656 173.078 22.6719 173.078 24.8281C173.078 26.0625 172.383 27.0547 171.234 27.6719V31.4531H174.391ZM168 22.2656C165.719 22.25 164.109 23.2812 164.109 24.8281C164.109 26.375 165.719 27.4219 168 27.4219C170.266 27.4219 171.891 26.375 171.891 24.8281C171.891 23.2812 170.266 22.25 168 22.2656ZM166.031 31.4531H170V28.1406C169.398 28.3047 168.727 28.3906 168 28.3906C167.289 28.3906 166.625 28.3125 166.031 28.1562V31.4531ZM176.969 33.0938C176.422 33.0938 175.953 32.6406 175.969 32.0781C175.953 31.5312 176.422 31.0781 176.969 31.0781C177.516 31.0781 177.969 31.5312 177.969 32.0781C177.969 32.6406 177.516 33.0938 176.969 33.0938Z" fill="#666666"/>
</svg>
