<?xml version="1.0" encoding="utf-8"?>
<!-- Generator: Adobe Illustrator 27.2.0, SVG Export Plug-In . SVG Version: 6.00 Build 0)  -->
<svg version="1.1" id="레이어_1" xmlns="http://www.w3.org/2000/svg" xmlns:xlink="http://www.w3.org/1999/xlink" x="0px"
	 y="0px" viewBox="0 0 17 17" style="enable-background:new 0 0 17 17;" xml:space="preserve">
<style type="text/css">
	.st0{fill:#666666;}
</style>
<g id="Search">
	<g id="Search_2">
		<path class="st0" d="M8.3,15.1c-3.7,0-6.7-3-6.7-6.7s3-6.7,6.7-6.7s6.7,3,6.7,6.7S12.1,15.1,8.3,15.1z M8.3,3.1
			c-2.9,0-5.2,2.4-5.2,5.2s2.4,5.2,5.2,5.2s5.2-2.4,5.2-5.2S11.2,3.1,8.3,3.1z"/>
		<path class="st0" d="M14.9,15.9c-0.2,0-0.4-0.1-0.5-0.2L12,13.4c-0.3-0.3-0.3-0.8,0-1.1c0.3-0.3,0.8-0.3,1.1,0l2.3,2.3
			c0.3,0.3,0.3,0.8,0,1.1C15.2,15.8,15.1,15.9,14.9,15.9z"/>
	</g>
</g>
</svg>
