<svg width="48" height="19" viewBox="0 0 48 19" fill="none" xmlns="http://www.w3.org/2000/svg">
<g clip-path="url(#clip0_322_2352)">
<path fill-rule="evenodd" clip-rule="evenodd" d="M7.89462 11.045C7.63101 10.7813 7.63101 10.354 7.89462 10.0904L14.3291 3.52012H10.8676C10.4948 3.52012 10.1926 3.21792 10.1926 2.84512C10.1926 2.47233 10.4948 2.17012 10.8676 2.17012H15.9587C16.3315 2.17012 16.6337 2.47233 16.6337 2.84512L16.6337 7.93629C16.6337 8.30909 16.3315 8.61129 15.9587 8.61129C15.5859 8.61129 15.2837 8.30908 15.2837 7.93629L15.2837 4.47472L8.84921 11.045C8.58561 11.3086 8.15822 11.3086 7.89462 11.045Z" fill="#9FA6B2"/>
<path fill-rule="evenodd" clip-rule="evenodd" d="M5.00039 4.7748C4.37907 4.7748 3.87539 5.27848 3.87539 5.8998V13.9998C3.87539 14.6211 4.37907 15.1248 5.00039 15.1248H13.1004C13.7217 15.1248 14.2254 14.6211 14.2254 13.9998V10.8498C14.2254 10.477 14.5276 10.1748 14.9004 10.1748C15.2732 10.1748 15.5754 10.477 15.5754 10.8498V13.9998C15.5754 15.3667 14.4673 16.4748 13.1004 16.4748H5.00039C3.63349 16.4748 2.52539 15.3667 2.52539 13.9998V5.8998C2.52539 4.5329 3.63349 3.4248 5.00039 3.4248H8.15039C8.52318 3.4248 8.82539 3.72701 8.82539 4.0998C8.82539 4.4726 8.52318 4.7748 8.15039 4.7748H5.00039Z" fill="#9FA6B2"/>
</g>
<path d="M28.4746 10.582C31.1543 10.5957 32.8496 11.4434 32.8633 12.9062C32.8496 14.3418 31.1543 15.2031 28.4746 15.2031C25.8086 15.2031 24.0996 14.3418 24.0996 12.9062C24.0996 11.4434 25.8086 10.5957 28.4746 10.582ZM28.4746 11.7305C26.6973 11.7305 25.6172 12.1543 25.6309 12.9062C25.6172 13.6309 26.6973 14.0273 28.4746 14.0273C30.2656 14.0273 31.3457 13.6309 31.3594 12.9062C31.3457 12.1543 30.2656 11.7305 28.4746 11.7305ZM32.7812 3.44531V4.4707C32.7812 5.44141 32.7812 6.48047 32.4395 7.75195L30.9355 7.61523C31.2432 6.41211 31.2637 5.54395 31.2637 4.64844H24.2227V3.44531H32.7812ZM34.1484 8.46289V9.69336H22.9375V8.46289H27.2852V6.2207H28.7891V8.46289H34.1484ZM46.2891 9.78906V11.0195H43.541V15.2168H41.9961V11.0195H39.2617V15.2168H37.7031V11.0195H34.9961V9.78906H46.2891ZM40.6152 3.29492C43.2402 3.30859 45.0723 4.375 45.0723 6.05664C45.0723 7.71094 43.2402 8.76367 40.6152 8.76367C37.9766 8.76367 36.1719 7.71094 36.1855 6.05664C36.1719 4.375 37.9766 3.30859 40.6152 3.29492ZM40.6152 4.52539C38.8652 4.52539 37.7305 5.08594 37.7441 6.05664C37.7305 7 38.8652 7.56055 40.6152 7.56055C42.3652 7.56055 43.5 7 43.5 6.05664C43.5 5.08594 42.3652 4.52539 40.6152 4.52539Z" fill="#9FA6B2"/>
<defs>
<clipPath id="clip0_322_2352">
<rect width="18" height="18" fill="white" transform="translate(0.5 0.5)"/>
</clipPath>
</defs>
</svg>
