<svg width="116" height="20" viewBox="0 0 116 20" fill="none" xmlns="http://www.w3.org/2000/svg">
<path fill-rule="evenodd" clip-rule="evenodd" d="M1 9.90279C1 14.3773 4.24975 18.098 8.5 18.8525V12.3523H6.25V9.85254H8.5V7.85229C8.5 5.60229 9.94975 4.35279 12.0002 4.35279C12.6497 4.35279 13.3503 4.45254 13.9998 4.55229V6.85254H12.85C11.7498 6.85254 11.5 7.40229 11.5 8.10279V9.85254H13.9L13.5002 12.3523H11.5V18.8525C15.7502 18.098 19 14.378 19 9.90279C19 4.92504 14.95 0.852539 10 0.852539C5.05 0.852539 1 4.92504 1 9.90279Z" fill="white"/>
<path d="M51.7029 4.11366C51.0071 4.42199 50.2596 4.63033 49.4737 4.72449C50.2846 4.23932 50.8912 3.47572 51.1804 2.57616C50.4186 3.02865 49.5849 3.34716 48.7154 3.51783C48.1307 2.89355 47.3563 2.47977 46.5124 2.34072C45.6684 2.20168 44.8022 2.34515 44.0481 2.74887C43.2941 3.15259 42.6944 3.79396 42.3422 4.57341C41.99 5.35287 41.905 6.22679 42.1004 7.05949C40.5568 6.98199 39.0468 6.58079 37.6683 5.88192C36.2898 5.18305 35.0736 4.20213 34.0987 3.00283C33.7654 3.57783 33.5738 4.24449 33.5738 4.95449C33.5734 5.59366 33.7308 6.22303 34.032 6.78677C34.3332 7.35051 34.7689 7.83119 35.3004 8.18616C34.684 8.16655 34.0811 7.99998 33.5421 7.70033V7.75033C33.542 8.64678 33.8521 9.51564 34.4197 10.2095C34.9874 10.9033 35.7776 11.3794 36.6562 11.557C36.0844 11.7118 35.4849 11.7346 34.9029 11.6237C35.1508 12.395 35.6337 13.0695 36.2841 13.5528C36.9344 14.036 37.7195 14.3038 38.5296 14.3187C37.1544 15.3982 35.4562 15.9837 33.7079 15.9812C33.3982 15.9812 33.0888 15.9632 32.7812 15.927C34.5558 17.068 36.6215 17.6735 38.7312 17.6712C45.8729 17.6712 49.7771 11.7562 49.7771 6.62616C49.7771 6.45949 49.7729 6.29116 49.7654 6.12449C50.5248 5.57531 51.1803 4.89524 51.7013 4.11616L51.7029 4.11366Z" fill="white"/>
<g clip-path="url(#clip0_6956_69661)">
<path d="M83.5838 5.4224C83.4706 5.01843 83.25 4.65269 82.9455 4.36407C82.6324 4.06657 82.2487 3.85376 81.8305 3.74573C80.2655 3.33323 73.9955 3.33323 73.9955 3.33323C71.3816 3.30349 68.7684 3.4343 66.1705 3.7249C65.7523 3.84091 65.3693 4.05847 65.0555 4.35823C64.7472 4.6549 64.5238 5.02073 64.4072 5.42157C64.1269 6.93135 63.9908 8.46435 64.0005 9.9999C63.9905 11.5341 64.1263 13.0666 64.4072 14.5782C64.5213 14.9774 64.7438 15.3416 65.053 15.6357C65.3622 15.9299 65.7472 16.1424 66.1705 16.2549C67.7563 16.6666 73.9955 16.6666 73.9955 16.6666C76.6127 16.6963 79.2293 16.5655 81.8305 16.2749C82.2487 16.1669 82.6324 15.9541 82.9455 15.6566C83.2499 15.368 83.4702 15.0022 83.583 14.5982C83.8706 13.089 84.0104 11.5554 84.0005 10.0191C84.0221 8.47624 83.8825 6.93537 83.5838 5.42157V5.4224ZM72.0022 12.8532V7.1474L77.2188 10.0007L72.0022 12.8532Z" fill="white"/>
</g>
<path d="M105.498 7.518C103.937 7.518 102.663 8.79173 102.663 10.3525C102.663 11.9133 103.937 13.1871 105.498 13.1871C107.059 13.1871 108.332 11.9133 108.332 10.3525C108.332 8.79173 107.059 7.518 105.498 7.518ZM113.999 10.3525C113.999 9.17875 114.01 8.01558 113.944 6.84392C113.878 5.483 113.568 4.27518 112.573 3.28001C111.575 2.28271 110.37 1.97438 109.009 1.90846C107.835 1.84254 106.672 1.85317 105.5 1.85317C104.326 1.85317 103.163 1.84254 101.991 1.90846C100.63 1.97438 99.4226 2.28484 98.4275 3.28001C97.4302 4.27731 97.1218 5.483 97.0559 6.84392C96.99 8.01771 97.0006 9.18087 97.0006 10.3525C97.0006 11.5242 96.99 12.6895 97.0559 13.8612C97.1218 15.2221 97.4323 16.4299 98.4275 17.4251C99.4248 18.4224 100.63 18.7307 101.991 18.7966C103.165 18.8625 104.328 18.8519 105.5 18.8519C106.674 18.8519 107.837 18.8625 109.009 18.7966C110.37 18.7307 111.577 18.4202 112.573 17.4251C113.57 16.4278 113.878 15.2221 113.944 13.8612C114.012 12.6895 113.999 11.5263 113.999 10.3525ZM105.498 14.7139C103.084 14.7139 101.137 12.766 101.137 10.3525C101.137 7.93903 103.084 5.99122 105.498 5.99122C107.911 5.99122 109.859 7.93903 109.859 10.3525C109.859 12.766 107.911 14.7139 105.498 14.7139ZM110.038 6.83116C109.474 6.83116 109.019 6.3761 109.019 5.8126C109.019 5.24909 109.474 4.79403 110.038 4.79403C110.601 4.79403 111.056 5.24909 111.056 5.8126C111.057 5.9464 111.03 6.07893 110.979 6.20258C110.928 6.32624 110.853 6.43859 110.758 6.5332C110.664 6.62782 110.551 6.70284 110.428 6.75397C110.304 6.8051 110.172 6.83133 110.038 6.83116Z" fill="white"/>
<defs>
<clipPath id="clip0_6956_69661">
<rect width="20" height="20" fill="white" transform="translate(64)"/>
</clipPath>
</defs>
</svg>
