<svg width="16" height="16" viewBox="0 0 16 16" fill="none" xmlns="http://www.w3.org/2000/svg">
<g id="Group 36">
<path id="Rectangle 194" d="M2.6 3.6H13.4V14C13.4 14.7732 12.7732 15.4 12 15.4H4C3.2268 15.4 2.6 14.7732 2.6 14V3.6Z" stroke="#9FA6B2" stroke-width="1.2"/>
<path id="Rectangle 195" d="M5.48387 1.57312C5.72102 1.09882 6.20579 0.799219 6.73607 0.799219H9.26393C9.79421 0.799219 10.279 1.09882 10.5161 1.57312L11.5292 3.59922H4.47082L5.48387 1.57312Z" stroke="#9FA6B2" stroke-width="1.2"/>
<rect id="Rectangle 195_2" x="0.5" y="3" width="15" height="1.2" rx="0.6" fill="#9FA6B2"/>
<rect id="Rectangle 196" x="8.6001" y="6" width="7" height="1.2" rx="0.6" transform="rotate(90 8.6001 6)" fill="#9FA6B2"/>
<rect id="Rectangle 198" x="11.1997" y="6" width="7" height="1.2" rx="0.6" transform="rotate(90 11.1997 6)" fill="#9FA6B2"/>
<rect id="Rectangle 197" x="6.2002" y="6" width="7" height="1.2" rx="0.6" transform="rotate(90 6.2002 6)" fill="#9FA6B2"/>
</g>
</svg>
