<svg width="17" height="18" viewBox="0 0 17 18" fill="none" xmlns="http://www.w3.org/2000/svg">
<path d="M8.49787 6.518C6.93707 6.518 5.66333 7.79173 5.66333 9.35254C5.66333 10.9133 6.93707 12.1871 8.49787 12.1871C10.0587 12.1871 11.3324 10.9133 11.3324 9.35254C11.3324 7.79173 10.0587 6.518 8.49787 6.518ZM16.9994 9.35254C16.9994 8.17875 17.01 7.01558 16.9441 5.84392C16.8782 4.483 16.5677 3.27518 15.5725 2.28001C14.5752 1.28271 13.3695 0.974378 12.0086 0.908459C10.8348 0.842539 9.67167 0.853172 8.5 0.853172C7.32621 0.853172 6.16305 0.842539 4.99138 0.908459C3.63046 0.974378 2.42264 1.28484 1.42747 2.28001C0.430173 3.27731 0.121839 4.483 0.0559198 5.84392C-0.00999972 7.01771 0.000632496 8.18087 0.000632496 9.35254C0.000632496 10.5242 -0.00999972 11.6895 0.0559198 12.8612C0.121839 14.2221 0.432299 15.4299 1.42747 16.4251C2.42477 17.4224 3.63046 17.7307 4.99138 17.7966C6.16517 17.8625 7.32833 17.8519 8.5 17.8519C9.67379 17.8519 10.837 17.8625 12.0086 17.7966C13.3695 17.7307 14.5774 17.4202 15.5725 16.4251C16.5698 15.4278 16.8782 14.2221 16.9441 12.8612C17.0121 11.6895 16.9994 10.5263 16.9994 9.35254ZM8.49787 13.7139C6.08437 13.7139 4.13655 11.766 4.13655 9.35254C4.13655 6.93903 6.08437 4.99122 8.49787 4.99122C10.9114 4.99122 12.8592 6.93903 12.8592 9.35254C12.8592 11.766 10.9114 13.7139 8.49787 13.7139ZM13.0378 5.83116C12.4743 5.83116 12.0193 5.3761 12.0193 4.8126C12.0193 4.24909 12.4743 3.79403 13.0378 3.79403C13.6013 3.79403 14.0564 4.24909 14.0564 4.8126C14.0565 4.9464 14.0303 5.07893 13.9792 5.20258C13.9281 5.32624 13.853 5.43859 13.7584 5.5332C13.6638 5.62782 13.5515 5.70284 13.4278 5.75397C13.3041 5.8051 13.1716 5.83133 13.0378 5.83116Z" fill="white"/>
</svg>
