<svg width="24" height="28" viewBox="0 0 24 28" fill="none" xmlns="http://www.w3.org/2000/svg">
<path id="Union" fill-rule="evenodd" clip-rule="evenodd" d="M11.9147 21.1019C10.4069 20.8755 8.99533 20.255 7.86603 19.2746C7.81637 19.2308 7.76671 19.1842 7.71964 19.1401L7.71091 19.1319C7.60542 19.0357 7.50614 18.9364 7.40687 18.834C7.30759 18.7317 7.21451 18.6262 7.12144 18.5207L7.07399 18.4653C6.99918 18.3781 6.92374 18.2902 6.85463 18.198C5.80289 16.8485 5.22894 15.2011 5.22894 13.4575C5.22894 11.6643 5.83392 9.96721 6.9446 8.59592C6.95546 8.58196 6.96632 8.56878 6.97717 8.55559C6.98803 8.54241 6.99889 8.52922 7.00975 8.51526C7.16177 8.33222 7.32 8.15538 7.49063 7.98784C7.83811 7.64037 8.21351 7.33632 8.61062 7.06641C8.72541 6.98885 8.8402 6.91129 8.9581 6.84303C8.98136 6.82907 9.00541 6.81511 9.02945 6.80115C9.05349 6.78719 9.07754 6.77323 9.10081 6.75927C9.96329 6.27528 10.9188 5.94953 11.9178 5.79751C12.5849 5.69823 13.1712 5.34455 13.5715 4.80162C13.9717 4.25868 14.1392 3.59166 14.0368 2.92463C13.9344 2.2576 13.5808 1.66813 13.0409 1.26791C12.5321 0.892515 11.9178 0.728085 11.2942 0.790134V0.787031L11.2384 0.796339C11.226 0.79789 11.2136 0.798665 11.2012 0.799441C11.1888 0.800217 11.1764 0.800992 11.1639 0.802544C10.9406 0.836671 10.7203 0.877003 10.5 0.920437C8.02115 1.39822 5.73774 2.59266 3.9166 4.41381C-1.05975 9.39015 -1.06906 17.4845 3.89178 22.4701L3.9197 22.498L3.9228 22.5012L3.9259 22.5043C5.9394 24.5146 8.50824 25.7649 11.2911 26.1248V26.1093C11.9147 26.1714 12.5321 26.0069 13.0378 25.6315C13.5808 25.2313 13.9344 24.6419 14.0337 23.9748C14.133 23.3078 13.9686 22.6408 13.5684 22.0978C13.1681 21.5549 12.5818 21.2012 11.9147 21.1019ZM19.9687 8.58663C21.9977 8.58663 23.6483 6.98266 23.6483 5.01259C23.6483 2.98358 21.9977 1.33308 19.9687 1.33308C17.9987 1.33308 16.3947 2.98358 16.3947 5.01259C16.3947 6.98266 17.9987 8.58663 19.9687 8.58663ZM19.6585 16.169C22.2118 16.169 23.1519 17.5714 23.49 18.7472C24.2005 21.2167 22.7672 25.5043 19.8508 27.3286L19.2924 27.6792V23.3016C17.4775 23.1155 16.0814 21.589 16.0814 19.7431C16.0814 17.773 17.6884 16.169 19.6585 16.169Z" fill="white"/>
</svg>
