<svg width="28" height="28" viewBox="0 0 28 28" fill="none" xmlns="http://www.w3.org/2000/svg">
<g id="white">
<path id="Union" fill-rule="evenodd" clip-rule="evenodd" d="M13.9147 21.1019C12.4069 20.8755 10.9953 20.255 9.86603 19.2746C9.81637 19.2308 9.76671 19.1842 9.71964 19.1401L9.71091 19.1319C9.60542 19.0357 9.50614 18.9364 9.40687 18.834C9.30759 18.7317 9.21451 18.6262 9.12144 18.5207L9.07399 18.4653C8.99918 18.3781 8.92374 18.2902 8.85463 18.198C7.80289 16.8485 7.22894 15.2011 7.22894 13.4575C7.22894 11.6643 7.83392 9.96721 8.9446 8.59592C8.95546 8.58196 8.96632 8.56878 8.97717 8.55559C8.98803 8.54241 8.99889 8.52922 9.00975 8.51526C9.16177 8.33222 9.32 8.15538 9.49063 7.98784C9.83811 7.64037 10.2135 7.33633 10.6106 7.06641C10.7254 6.98885 10.8402 6.91129 10.9581 6.84303C10.9814 6.82907 11.0054 6.81511 11.0294 6.80115C11.0535 6.78719 11.0775 6.77323 11.1008 6.75927C11.9633 6.27528 12.9188 5.94953 13.9178 5.79751C14.5849 5.69823 15.1712 5.34455 15.5715 4.80162C15.9717 4.25868 16.1392 3.59166 16.0368 2.92463C15.9344 2.2576 15.5808 1.66813 15.0409 1.26791C14.5321 0.892515 13.9178 0.728085 13.2942 0.790134V0.787031L13.2384 0.796339C13.226 0.79789 13.2136 0.798665 13.2012 0.799441C13.1888 0.800217 13.1764 0.800992 13.1639 0.802544C12.9406 0.836671 12.7203 0.877003 12.5 0.920437C10.0212 1.39822 7.73774 2.59266 5.9166 4.41381C0.940251 9.39015 0.930944 17.4845 5.89178 22.4701L5.9197 22.498L5.9228 22.5012L5.9259 22.5043C7.9394 24.5146 10.5082 25.7649 13.2911 26.1248V26.1093C13.9147 26.1714 14.5321 26.0069 15.0378 25.6315C15.5808 25.2313 15.9344 24.6418 16.0337 23.9748C16.133 23.3078 15.9686 22.6408 15.5684 22.0978C15.1681 21.5549 14.5818 21.2012 13.9147 21.1019ZM21.9687 8.58663C23.9977 8.58663 25.6483 6.98266 25.6483 5.01259C25.6483 2.98358 23.9977 1.33308 21.9687 1.33308C19.9987 1.33308 18.3947 2.98358 18.3947 5.01259C18.3947 6.98266 19.9987 8.58663 21.9687 8.58663ZM21.6585 16.169C24.2118 16.169 25.1519 17.5714 25.49 18.7472C26.2005 21.2167 24.7672 25.5043 21.8508 27.3286L21.2924 27.6792V23.3016C19.4775 23.1154 18.0814 21.589 18.0814 19.7431C18.0814 17.773 19.6884 16.169 21.6585 16.169Z" fill="white"/>
</g>
</svg>
